<svg width="184" height="61" viewBox="0 0 184 61" fill="none" xmlns="http://www.w3.org/2000/svg">
<mask id="path-1-outside-1" maskUnits="userSpaceOnUse" x="15" y="22" width="154" height="17" fill="black">
<rect fill="white" x="15" y="22" width="154" height="17"/>
<path d="M18.896 25.8942V29.0192H22.4618C23.0988 29.0192 23.6143 28.9038 24.0083 28.6731C24.4089 28.4359 24.6092 28.0192 24.6092 27.4231C24.6092 26.7628 24.3465 26.3269 23.8211 26.1154C23.368 25.9679 22.7901 25.8942 22.0875 25.8942H18.896ZM18.896 31.3654V35.1442H22.4618C23.0988 35.1442 23.5946 35.0609 23.9492 34.8942C24.5927 34.5865 24.9145 33.9968 24.9145 33.125C24.9145 32.3878 24.6026 31.8814 23.9787 31.6058C23.6307 31.4519 23.1415 31.3718 22.511 31.3654H18.896ZM23.0528 23.4327C24.8324 23.4583 26.0933 23.9615 26.8353 24.9423C27.2819 25.5449 27.5052 26.266 27.5052 27.1058C27.5052 27.9712 27.2819 28.6667 26.8353 29.1923C26.5858 29.4872 26.218 29.7564 25.7321 30C26.4742 30.2628 27.0323 30.6795 27.4066 31.25C27.7875 31.8205 27.978 32.5128 27.978 33.3269C27.978 34.1667 27.7613 34.9199 27.3278 35.5865C27.052 36.0288 26.7073 36.4006 26.2936 36.7019C25.8273 37.0481 25.2757 37.2853 24.6387 37.4135C24.0083 37.5417 23.3221 37.6058 22.58 37.6058H16V23.4327H23.0528Z"/>
<path d="M36.9516 35.4904C38.1533 35.4904 39.1055 35.0577 39.8082 34.1923C40.5174 33.3269 40.872 32.0962 40.872 30.5C40.872 28.9103 40.5174 27.6827 39.8082 26.8173C39.1055 25.9455 38.1533 25.5096 36.9516 25.5096C35.7499 25.5096 34.7911 25.9423 34.0753 26.8077C33.3595 27.6731 33.0016 28.9038 33.0016 30.5C33.0016 32.0962 33.3595 33.3269 34.0753 34.1923C34.7911 35.0577 35.7499 35.4904 36.9516 35.4904ZM43.9059 30.5C43.9059 33.0449 43.1737 34.9936 41.7093 36.3462C40.6126 37.4487 39.0267 38 36.9516 38C34.8765 38 33.2906 37.4487 32.1939 36.3462C30.7229 34.9936 29.9874 33.0449 29.9874 30.5C29.9874 27.9038 30.7229 25.9551 32.1939 24.6538C33.2906 23.5513 34.8765 23 36.9516 23C39.0267 23 40.6126 23.5513 41.7093 24.6538C43.1737 25.9551 43.9059 27.9038 43.9059 30.5Z"/>
<path d="M56.9674 25.9423H49.2842V28.9519H56.337V31.4135H49.2842V35.0577H57.322V37.6058H46.3192V23.4327H56.9674V25.9423Z"/>
<path d="M62.4639 37.6058H59.4497V23.4327H62.4639V37.6058Z"/>
<path d="M65.2515 23.4327H68.4332L74.2153 33.3269V23.4327H77.0423V37.6058H74.0084L68.0785 27.5385V37.6058H65.2515V23.4327Z"/>
<path d="M89.6409 27.8558C89.411 26.8878 88.8495 26.2115 87.9565 25.8269C87.4574 25.6154 86.9025 25.5096 86.2918 25.5096C85.1228 25.5096 84.1608 25.9423 83.4056 26.8077C82.657 27.6667 82.2827 28.9615 82.2827 30.6923C82.2827 32.4359 82.6898 33.6699 83.5041 34.3942C84.3184 35.1186 85.2443 35.4808 86.2819 35.4808C87.2998 35.4808 88.1338 35.1955 88.7839 34.625C89.434 34.0481 89.8346 33.2949 89.9856 32.3654H86.6267V30H92.6747V37.6058H90.6653L90.3599 35.8365C89.7755 36.5096 89.2501 36.984 88.7839 37.2596C87.9827 37.7404 86.9977 37.9808 85.8288 37.9808C83.9047 37.9808 82.3286 37.3301 81.1006 36.0288C79.8201 34.7212 79.1798 32.9327 79.1798 30.6635C79.1798 28.3686 79.8267 26.5288 81.1203 25.1442C82.414 23.7596 84.1247 23.0673 86.2524 23.0673C88.0976 23.0673 89.5785 23.5256 90.6948 24.4423C91.8178 25.3526 92.4613 26.4904 92.6255 27.8558H89.6409Z"/>
<path d="M103.392 33.2308C103.484 33.8782 103.664 34.3622 103.934 34.6827C104.426 35.266 105.27 35.5577 106.465 35.5577C107.181 35.5577 107.762 35.4808 108.209 35.3269C109.056 35.0321 109.479 34.484 109.479 33.6827C109.479 33.2147 109.269 32.8526 108.849 32.5962C108.429 32.3462 107.769 32.125 106.869 31.9327L105.332 31.5962C103.822 31.2628 102.778 30.9006 102.2 30.5096C101.222 29.8558 100.732 28.8333 100.732 27.4423C100.732 26.1731 101.205 25.1186 102.151 24.2788C103.096 23.4391 104.485 23.0192 106.317 23.0192C107.847 23.0192 109.151 23.4167 110.228 24.2115C111.312 25 111.88 26.1474 111.932 27.6538H109.016C108.964 26.8013 108.583 26.1955 107.874 25.8365C107.401 25.5994 106.813 25.4808 106.111 25.4808C105.329 25.4808 104.705 25.6346 104.239 25.9423C103.773 26.25 103.54 26.6795 103.54 27.2308C103.54 27.7372 103.769 28.1154 104.229 28.3654C104.525 28.5321 105.155 28.7276 106.12 28.9519L108.622 29.5385C109.719 29.7949 110.546 30.1378 111.105 30.5673C111.971 31.234 112.405 32.1987 112.405 33.4615C112.405 34.7564 111.896 35.8333 110.878 36.6923C109.867 37.5449 108.435 37.9712 106.583 37.9712C104.692 37.9712 103.205 37.5513 102.121 36.7115C101.038 35.8654 100.496 34.7051 100.496 33.2308H103.392Z"/>
<path d="M125.2 23.4327V25.9423H120.856V37.6058H117.803V25.9423H113.439V23.4327H125.2Z"/>
<path d="M133.051 35.4904C134.253 35.4904 135.205 35.0577 135.908 34.1923C136.617 33.3269 136.972 32.0962 136.972 30.5C136.972 28.9103 136.617 27.6827 135.908 26.8173C135.205 25.9455 134.253 25.5096 133.051 25.5096C131.849 25.5096 130.891 25.9423 130.175 26.8077C129.459 27.6731 129.101 28.9038 129.101 30.5C129.101 32.0962 129.459 33.3269 130.175 34.1923C130.891 35.0577 131.849 35.4904 133.051 35.4904ZM140.005 30.5C140.005 33.0449 139.273 34.9936 137.809 36.3462C136.712 37.4487 135.126 38 133.051 38C130.976 38 129.39 37.4487 128.293 36.3462C126.822 34.9936 126.087 33.0449 126.087 30.5C126.087 27.9038 126.822 25.9551 128.293 24.6538C129.39 23.5513 130.976 23 133.051 23C135.126 23 136.712 23.5513 137.809 24.6538C139.273 25.9551 140.005 27.9038 140.005 30.5Z"/>
<path d="M145.364 25.8942V29.7019H148.802C149.485 29.7019 149.997 29.625 150.338 29.4712C150.943 29.2019 151.245 28.6699 151.245 27.875C151.245 27.016 150.952 26.4391 150.368 26.1442C150.04 25.9776 149.547 25.8942 148.89 25.8942H145.364ZM149.521 23.4327C150.539 23.4519 151.32 23.5737 151.865 23.7981C152.417 24.0224 152.883 24.3526 153.264 24.7885C153.579 25.1474 153.829 25.5449 154.013 25.9808C154.196 26.4167 154.288 26.9135 154.288 27.4712C154.288 28.1442 154.114 28.8077 153.766 29.4615C153.418 30.109 152.844 30.5673 152.043 30.8365C152.712 31.0994 153.185 31.4744 153.461 31.9615C153.743 32.4423 153.885 33.1795 153.885 34.1731V35.125C153.885 35.7724 153.911 36.2115 153.963 36.4423C154.042 36.8077 154.226 37.0769 154.515 37.25V37.6058H151.176C151.084 37.2917 151.018 37.0385 150.979 36.8462C150.9 36.4487 150.857 36.0417 150.851 35.625L150.831 34.3077C150.818 33.4038 150.647 32.8013 150.319 32.5C149.997 32.1987 149.39 32.0481 148.496 32.0481H145.364V37.6058H142.399V23.4327H149.521Z"/>
<path d="M167.645 25.9423H159.962V28.9519H167.015V31.4135H159.962V35.0577H168V37.6058H156.997V23.4327H167.645V25.9423Z"/>
</mask>
<path d="M18.896 25.8942V29.0192H22.4618C23.0988 29.0192 23.6143 28.9038 24.0083 28.6731C24.4089 28.4359 24.6092 28.0192 24.6092 27.4231C24.6092 26.7628 24.3465 26.3269 23.8211 26.1154C23.368 25.9679 22.7901 25.8942 22.0875 25.8942H18.896ZM18.896 31.3654V35.1442H22.4618C23.0988 35.1442 23.5946 35.0609 23.9492 34.8942C24.5927 34.5865 24.9145 33.9968 24.9145 33.125C24.9145 32.3878 24.6026 31.8814 23.9787 31.6058C23.6307 31.4519 23.1415 31.3718 22.511 31.3654H18.896ZM23.0528 23.4327C24.8324 23.4583 26.0933 23.9615 26.8353 24.9423C27.2819 25.5449 27.5052 26.266 27.5052 27.1058C27.5052 27.9712 27.2819 28.6667 26.8353 29.1923C26.5858 29.4872 26.218 29.7564 25.7321 30C26.4742 30.2628 27.0323 30.6795 27.4066 31.25C27.7875 31.8205 27.978 32.5128 27.978 33.3269C27.978 34.1667 27.7613 34.9199 27.3278 35.5865C27.052 36.0288 26.7073 36.4006 26.2936 36.7019C25.8273 37.0481 25.2757 37.2853 24.6387 37.4135C24.0083 37.5417 23.3221 37.6058 22.58 37.6058H16V23.4327H23.0528Z" fill="#0C42AA"/>
<path d="M36.9516 35.4904C38.1533 35.4904 39.1055 35.0577 39.8082 34.1923C40.5174 33.3269 40.872 32.0962 40.872 30.5C40.872 28.9103 40.5174 27.6827 39.8082 26.8173C39.1055 25.9455 38.1533 25.5096 36.9516 25.5096C35.7499 25.5096 34.7911 25.9423 34.0753 26.8077C33.3595 27.6731 33.0016 28.9038 33.0016 30.5C33.0016 32.0962 33.3595 33.3269 34.0753 34.1923C34.7911 35.0577 35.7499 35.4904 36.9516 35.4904ZM43.9059 30.5C43.9059 33.0449 43.1737 34.9936 41.7093 36.3462C40.6126 37.4487 39.0267 38 36.9516 38C34.8765 38 33.2906 37.4487 32.1939 36.3462C30.7229 34.9936 29.9874 33.0449 29.9874 30.5C29.9874 27.9038 30.7229 25.9551 32.1939 24.6538C33.2906 23.5513 34.8765 23 36.9516 23C39.0267 23 40.6126 23.5513 41.7093 24.6538C43.1737 25.9551 43.9059 27.9038 43.9059 30.5Z" fill="#0C42AA"/>
<path d="M56.9674 25.9423H49.2842V28.9519H56.337V31.4135H49.2842V35.0577H57.322V37.6058H46.3192V23.4327H56.9674V25.9423Z" fill="#0C42AA"/>
<path d="M62.4639 37.6058H59.4497V23.4327H62.4639V37.6058Z" fill="#0C42AA"/>
<path d="M65.2515 23.4327H68.4332L74.2153 33.3269V23.4327H77.0423V37.6058H74.0084L68.0785 27.5385V37.6058H65.2515V23.4327Z" fill="#0C42AA"/>
<path d="M89.6409 27.8558C89.411 26.8878 88.8495 26.2115 87.9565 25.8269C87.4574 25.6154 86.9025 25.5096 86.2918 25.5096C85.1228 25.5096 84.1608 25.9423 83.4056 26.8077C82.657 27.6667 82.2827 28.9615 82.2827 30.6923C82.2827 32.4359 82.6898 33.6699 83.5041 34.3942C84.3184 35.1186 85.2443 35.4808 86.2819 35.4808C87.2998 35.4808 88.1338 35.1955 88.7839 34.625C89.434 34.0481 89.8346 33.2949 89.9856 32.3654H86.6267V30H92.6747V37.6058H90.6653L90.3599 35.8365C89.7755 36.5096 89.2501 36.984 88.7839 37.2596C87.9827 37.7404 86.9977 37.9808 85.8288 37.9808C83.9047 37.9808 82.3286 37.3301 81.1006 36.0288C79.8201 34.7212 79.1798 32.9327 79.1798 30.6635C79.1798 28.3686 79.8267 26.5288 81.1203 25.1442C82.414 23.7596 84.1247 23.0673 86.2524 23.0673C88.0976 23.0673 89.5785 23.5256 90.6948 24.4423C91.8178 25.3526 92.4613 26.4904 92.6255 27.8558H89.6409Z" fill="#0C42AA"/>
<path d="M103.392 33.2308C103.484 33.8782 103.664 34.3622 103.934 34.6827C104.426 35.266 105.27 35.5577 106.465 35.5577C107.181 35.5577 107.762 35.4808 108.209 35.3269C109.056 35.0321 109.479 34.484 109.479 33.6827C109.479 33.2147 109.269 32.8526 108.849 32.5962C108.429 32.3462 107.769 32.125 106.869 31.9327L105.332 31.5962C103.822 31.2628 102.778 30.9006 102.2 30.5096C101.222 29.8558 100.732 28.8333 100.732 27.4423C100.732 26.1731 101.205 25.1186 102.151 24.2788C103.096 23.4391 104.485 23.0192 106.317 23.0192C107.847 23.0192 109.151 23.4167 110.228 24.2115C111.312 25 111.88 26.1474 111.932 27.6538H109.016C108.964 26.8013 108.583 26.1955 107.874 25.8365C107.401 25.5994 106.813 25.4808 106.111 25.4808C105.329 25.4808 104.705 25.6346 104.239 25.9423C103.773 26.25 103.54 26.6795 103.54 27.2308C103.54 27.7372 103.769 28.1154 104.229 28.3654C104.525 28.5321 105.155 28.7276 106.12 28.9519L108.622 29.5385C109.719 29.7949 110.546 30.1378 111.105 30.5673C111.971 31.234 112.405 32.1987 112.405 33.4615C112.405 34.7564 111.896 35.8333 110.878 36.6923C109.867 37.5449 108.435 37.9712 106.583 37.9712C104.692 37.9712 103.205 37.5513 102.121 36.7115C101.038 35.8654 100.496 34.7051 100.496 33.2308H103.392Z" fill="#0C42AA"/>
<path d="M125.2 23.4327V25.9423H120.856V37.6058H117.803V25.9423H113.439V23.4327H125.2Z" fill="#0C42AA"/>
<path d="M133.051 35.4904C134.253 35.4904 135.205 35.0577 135.908 34.1923C136.617 33.3269 136.972 32.0962 136.972 30.5C136.972 28.9103 136.617 27.6827 135.908 26.8173C135.205 25.9455 134.253 25.5096 133.051 25.5096C131.849 25.5096 130.891 25.9423 130.175 26.8077C129.459 27.6731 129.101 28.9038 129.101 30.5C129.101 32.0962 129.459 33.3269 130.175 34.1923C130.891 35.0577 131.849 35.4904 133.051 35.4904ZM140.005 30.5C140.005 33.0449 139.273 34.9936 137.809 36.3462C136.712 37.4487 135.126 38 133.051 38C130.976 38 129.39 37.4487 128.293 36.3462C126.822 34.9936 126.087 33.0449 126.087 30.5C126.087 27.9038 126.822 25.9551 128.293 24.6538C129.39 23.5513 130.976 23 133.051 23C135.126 23 136.712 23.5513 137.809 24.6538C139.273 25.9551 140.005 27.9038 140.005 30.5Z" fill="#0C42AA"/>
<path d="M145.364 25.8942V29.7019H148.802C149.485 29.7019 149.997 29.625 150.338 29.4712C150.943 29.2019 151.245 28.6699 151.245 27.875C151.245 27.016 150.952 26.4391 150.368 26.1442C150.04 25.9776 149.547 25.8942 148.89 25.8942H145.364ZM149.521 23.4327C150.539 23.4519 151.32 23.5737 151.865 23.7981C152.417 24.0224 152.883 24.3526 153.264 24.7885C153.579 25.1474 153.829 25.5449 154.013 25.9808C154.196 26.4167 154.288 26.9135 154.288 27.4712C154.288 28.1442 154.114 28.8077 153.766 29.4615C153.418 30.109 152.844 30.5673 152.043 30.8365C152.712 31.0994 153.185 31.4744 153.461 31.9615C153.743 32.4423 153.885 33.1795 153.885 34.1731V35.125C153.885 35.7724 153.911 36.2115 153.963 36.4423C154.042 36.8077 154.226 37.0769 154.515 37.25V37.6058H151.176C151.084 37.2917 151.018 37.0385 150.979 36.8462C150.9 36.4487 150.857 36.0417 150.851 35.625L150.831 34.3077C150.818 33.4038 150.647 32.8013 150.319 32.5C149.997 32.1987 149.39 32.0481 148.496 32.0481H145.364V37.6058H142.399V23.4327H149.521Z" fill="#0C42AA"/>
<path d="M167.645 25.9423H159.962V28.9519H167.015V31.4135H159.962V35.0577H168V37.6058H156.997V23.4327H167.645V25.9423Z" fill="#0C42AA"/>
<path d="M18.896 25.8942V29.0192H22.4618C23.0988 29.0192 23.6143 28.9038 24.0083 28.6731C24.4089 28.4359 24.6092 28.0192 24.6092 27.4231C24.6092 26.7628 24.3465 26.3269 23.8211 26.1154C23.368 25.9679 22.7901 25.8942 22.0875 25.8942H18.896ZM18.896 31.3654V35.1442H22.4618C23.0988 35.1442 23.5946 35.0609 23.9492 34.8942C24.5927 34.5865 24.9145 33.9968 24.9145 33.125C24.9145 32.3878 24.6026 31.8814 23.9787 31.6058C23.6307 31.4519 23.1415 31.3718 22.511 31.3654H18.896ZM23.0528 23.4327C24.8324 23.4583 26.0933 23.9615 26.8353 24.9423C27.2819 25.5449 27.5052 26.266 27.5052 27.1058C27.5052 27.9712 27.2819 28.6667 26.8353 29.1923C26.5858 29.4872 26.218 29.7564 25.7321 30C26.4742 30.2628 27.0323 30.6795 27.4066 31.25C27.7875 31.8205 27.978 32.5128 27.978 33.3269C27.978 34.1667 27.7613 34.9199 27.3278 35.5865C27.052 36.0288 26.7073 36.4006 26.2936 36.7019C25.8273 37.0481 25.2757 37.2853 24.6387 37.4135C24.0083 37.5417 23.3221 37.6058 22.58 37.6058H16V23.4327H23.0528Z" stroke="#0C42AA" stroke-width="0.8" mask="url(#path-1-outside-1)"/>
<path d="M36.9516 35.4904C38.1533 35.4904 39.1055 35.0577 39.8082 34.1923C40.5174 33.3269 40.872 32.0962 40.872 30.5C40.872 28.9103 40.5174 27.6827 39.8082 26.8173C39.1055 25.9455 38.1533 25.5096 36.9516 25.5096C35.7499 25.5096 34.7911 25.9423 34.0753 26.8077C33.3595 27.6731 33.0016 28.9038 33.0016 30.5C33.0016 32.0962 33.3595 33.3269 34.0753 34.1923C34.7911 35.0577 35.7499 35.4904 36.9516 35.4904ZM43.9059 30.5C43.9059 33.0449 43.1737 34.9936 41.7093 36.3462C40.6126 37.4487 39.0267 38 36.9516 38C34.8765 38 33.2906 37.4487 32.1939 36.3462C30.7229 34.9936 29.9874 33.0449 29.9874 30.5C29.9874 27.9038 30.7229 25.9551 32.1939 24.6538C33.2906 23.5513 34.8765 23 36.9516 23C39.0267 23 40.6126 23.5513 41.7093 24.6538C43.1737 25.9551 43.9059 27.9038 43.9059 30.5Z" stroke="#0C42AA" stroke-width="0.8" mask="url(#path-1-outside-1)"/>
<path d="M56.9674 25.9423H49.2842V28.9519H56.337V31.4135H49.2842V35.0577H57.322V37.6058H46.3192V23.4327H56.9674V25.9423Z" stroke="#0C42AA" stroke-width="0.8" mask="url(#path-1-outside-1)"/>
<path d="M62.4639 37.6058H59.4497V23.4327H62.4639V37.6058Z" stroke="#0C42AA" stroke-width="0.8" mask="url(#path-1-outside-1)"/>
<path d="M65.2515 23.4327H68.4332L74.2153 33.3269V23.4327H77.0423V37.6058H74.0084L68.0785 27.5385V37.6058H65.2515V23.4327Z" stroke="#0C42AA" stroke-width="0.8" mask="url(#path-1-outside-1)"/>
<path d="M89.6409 27.8558C89.411 26.8878 88.8495 26.2115 87.9565 25.8269C87.4574 25.6154 86.9025 25.5096 86.2918 25.5096C85.1228 25.5096 84.1608 25.9423 83.4056 26.8077C82.657 27.6667 82.2827 28.9615 82.2827 30.6923C82.2827 32.4359 82.6898 33.6699 83.5041 34.3942C84.3184 35.1186 85.2443 35.4808 86.2819 35.4808C87.2998 35.4808 88.1338 35.1955 88.7839 34.625C89.434 34.0481 89.8346 33.2949 89.9856 32.3654H86.6267V30H92.6747V37.6058H90.6653L90.3599 35.8365C89.7755 36.5096 89.2501 36.984 88.7839 37.2596C87.9827 37.7404 86.9977 37.9808 85.8288 37.9808C83.9047 37.9808 82.3286 37.3301 81.1006 36.0288C79.8201 34.7212 79.1798 32.9327 79.1798 30.6635C79.1798 28.3686 79.8267 26.5288 81.1203 25.1442C82.414 23.7596 84.1247 23.0673 86.2524 23.0673C88.0976 23.0673 89.5785 23.5256 90.6948 24.4423C91.8178 25.3526 92.4613 26.4904 92.6255 27.8558H89.6409Z" stroke="#0C42AA" stroke-width="0.8" mask="url(#path-1-outside-1)"/>
<path d="M103.392 33.2308C103.484 33.8782 103.664 34.3622 103.934 34.6827C104.426 35.266 105.27 35.5577 106.465 35.5577C107.181 35.5577 107.762 35.4808 108.209 35.3269C109.056 35.0321 109.479 34.484 109.479 33.6827C109.479 33.2147 109.269 32.8526 108.849 32.5962C108.429 32.3462 107.769 32.125 106.869 31.9327L105.332 31.5962C103.822 31.2628 102.778 30.9006 102.2 30.5096C101.222 29.8558 100.732 28.8333 100.732 27.4423C100.732 26.1731 101.205 25.1186 102.151 24.2788C103.096 23.4391 104.485 23.0192 106.317 23.0192C107.847 23.0192 109.151 23.4167 110.228 24.2115C111.312 25 111.88 26.1474 111.932 27.6538H109.016C108.964 26.8013 108.583 26.1955 107.874 25.8365C107.401 25.5994 106.813 25.4808 106.111 25.4808C105.329 25.4808 104.705 25.6346 104.239 25.9423C103.773 26.25 103.54 26.6795 103.54 27.2308C103.54 27.7372 103.769 28.1154 104.229 28.3654C104.525 28.5321 105.155 28.7276 106.12 28.9519L108.622 29.5385C109.719 29.7949 110.546 30.1378 111.105 30.5673C111.971 31.234 112.405 32.1987 112.405 33.4615C112.405 34.7564 111.896 35.8333 110.878 36.6923C109.867 37.5449 108.435 37.9712 106.583 37.9712C104.692 37.9712 103.205 37.5513 102.121 36.7115C101.038 35.8654 100.496 34.7051 100.496 33.2308H103.392Z" stroke="#0C42AA" stroke-width="0.8" mask="url(#path-1-outside-1)"/>
<path d="M125.2 23.4327V25.9423H120.856V37.6058H117.803V25.9423H113.439V23.4327H125.2Z" stroke="#0C42AA" stroke-width="0.8" mask="url(#path-1-outside-1)"/>
<path d="M133.051 35.4904C134.253 35.4904 135.205 35.0577 135.908 34.1923C136.617 33.3269 136.972 32.0962 136.972 30.5C136.972 28.9103 136.617 27.6827 135.908 26.8173C135.205 25.9455 134.253 25.5096 133.051 25.5096C131.849 25.5096 130.891 25.9423 130.175 26.8077C129.459 27.6731 129.101 28.9038 129.101 30.5C129.101 32.0962 129.459 33.3269 130.175 34.1923C130.891 35.0577 131.849 35.4904 133.051 35.4904ZM140.005 30.5C140.005 33.0449 139.273 34.9936 137.809 36.3462C136.712 37.4487 135.126 38 133.051 38C130.976 38 129.39 37.4487 128.293 36.3462C126.822 34.9936 126.087 33.0449 126.087 30.5C126.087 27.9038 126.822 25.9551 128.293 24.6538C129.39 23.5513 130.976 23 133.051 23C135.126 23 136.712 23.5513 137.809 24.6538C139.273 25.9551 140.005 27.9038 140.005 30.5Z" stroke="#0C42AA" stroke-width="0.8" mask="url(#path-1-outside-1)"/>
<path d="M145.364 25.8942V29.7019H148.802C149.485 29.7019 149.997 29.625 150.338 29.4712C150.943 29.2019 151.245 28.6699 151.245 27.875C151.245 27.016 150.952 26.4391 150.368 26.1442C150.04 25.9776 149.547 25.8942 148.89 25.8942H145.364ZM149.521 23.4327C150.539 23.4519 151.32 23.5737 151.865 23.7981C152.417 24.0224 152.883 24.3526 153.264 24.7885C153.579 25.1474 153.829 25.5449 154.013 25.9808C154.196 26.4167 154.288 26.9135 154.288 27.4712C154.288 28.1442 154.114 28.8077 153.766 29.4615C153.418 30.109 152.844 30.5673 152.043 30.8365C152.712 31.0994 153.185 31.4744 153.461 31.9615C153.743 32.4423 153.885 33.1795 153.885 34.1731V35.125C153.885 35.7724 153.911 36.2115 153.963 36.4423C154.042 36.8077 154.226 37.0769 154.515 37.25V37.6058H151.176C151.084 37.2917 151.018 37.0385 150.979 36.8462C150.9 36.4487 150.857 36.0417 150.851 35.625L150.831 34.3077C150.818 33.4038 150.647 32.8013 150.319 32.5C149.997 32.1987 149.39 32.0481 148.496 32.0481H145.364V37.6058H142.399V23.4327H149.521Z" stroke="#0C42AA" stroke-width="0.8" mask="url(#path-1-outside-1)"/>
<path d="M167.645 25.9423H159.962V28.9519H167.015V31.4135H159.962V35.0577H168V37.6058H156.997V23.4327H167.645V25.9423Z" stroke="#0C42AA" stroke-width="0.8" mask="url(#path-1-outside-1)"/>
</svg>
