<svg width="43" height="43" viewBox="0 0 43 43" fill="none" xmlns="http://www.w3.org/2000/svg">
<path d="M41.6483 34.8533L34.721 27.9259L38.1184 24.5285C38.4128 24.2342 38.5338 23.8084 38.4381 23.4032C38.3424 22.998 38.0439 22.6713 37.6489 22.5397L17.2644 15.7448C16.8329 15.6009 16.3569 15.7132 16.0352 16.035C15.7135 16.3567 15.6011 16.8326 15.745 17.2642L22.5399 37.6488C22.6716 38.0437 22.9983 38.3423 23.4035 38.4379C23.8086 38.5338 24.2344 38.4127 24.5288 38.1183L27.9263 34.7209L34.8536 41.6482C35.0882 41.8827 35.3956 42 35.703 42C36.0103 42 36.3178 41.8828 36.5523 41.6482L41.6484 36.552C42.1175 36.0829 42.1175 35.3224 41.6483 34.8533ZM35.7029 39.1001L28.7755 32.1728C28.3065 31.7037 27.5458 31.7037 27.0768 32.1728L24.2043 35.0453L18.7838 18.7836L35.0454 24.2042L32.173 27.0766C31.7043 27.5452 31.7039 28.3063 32.173 28.7753L39.1003 35.7027L35.7029 39.1001Z" fill="#0099FF"/>
<path fill-rule="evenodd" clip-rule="evenodd" d="M17.3117 15.6025C17.3117 15.6025 17.3117 15.6025 17.3117 15.6025L37.6962 22.3974C38.1405 22.5455 38.4763 22.913 38.5839 23.3688C38.6916 23.8246 38.5555 24.3035 38.2243 24.6347L34.9329 27.926L41.7543 34.7473C42.282 35.275 42.282 36.1305 41.7543 36.6581L36.6582 41.7543C36.6582 41.7543 36.6582 41.7542 36.6582 41.7543C36.3945 42.0182 36.0483 42.1501 35.7028 42.1501C35.3573 42.1501 35.0112 42.0181 34.7474 41.7543L27.9261 34.9331L24.6347 38.2244C24.3036 38.5556 23.8246 38.6918 23.3688 38.584C22.9131 38.4764 22.5456 38.1405 22.3975 37.6963L15.6026 17.3117C15.6026 17.3117 15.6026 17.3117 15.6026 17.3117C15.4407 16.8262 15.5671 16.2909 15.929 15.929C15.929 15.929 15.929 15.929 15.929 15.929M17.2168 15.8871C16.8392 15.7612 16.4227 15.8595 16.1412 16.1411C15.8596 16.4227 15.7613 16.8391 15.8872 17.2168L22.682 37.6014C22.682 37.6014 22.682 37.6013 22.682 37.6014C22.7973 37.947 23.0833 38.2083 23.4378 38.292C23.7922 38.3759 24.1649 38.27 24.4226 38.0123L27.9261 34.5088L34.9596 41.5422C35.1649 41.7475 35.4336 41.8501 35.7028 41.8501C35.972 41.8501 36.2408 41.7475 36.446 41.5422L41.5422 36.446C41.9527 36.0355 41.9527 35.37 41.5421 34.9594L34.5087 27.926L38.0122 24.4225C38.2698 24.1649 38.3757 23.7923 38.292 23.4377C38.2082 23.0831 37.947 22.7972 37.6013 22.682L17.2168 15.8871ZM18.5464 18.5465L35.323 24.1386L32.2789 27.1827C31.8687 27.5928 31.8684 28.2589 32.2789 28.6693L39.3123 35.7028L35.7027 39.3123L28.6693 32.2789C28.2588 31.8684 27.5932 31.8684 27.1827 32.2789L24.1386 35.323L18.5464 18.5465ZM19.0208 19.0208L24.2697 34.7676L26.9706 32.0668C27.4982 31.5391 28.3538 31.5391 28.8814 32.0668L35.7027 38.888L38.8881 35.7028L32.0668 28.8814C31.539 28.3538 31.5395 27.4978 32.0667 26.9706L34.7676 24.2698L19.0208 19.0208Z" fill="#0099FF"/>
<path d="M16.6152 10.6094C17.2786 10.6094 17.8164 10.0716 17.8164 9.40819V2.20117C17.8164 1.5378 17.2786 1 16.6152 1C15.9519 1 15.4141 1.5378 15.4141 2.20117V9.40819C15.4141 10.0716 15.9519 10.6094 16.6152 10.6094Z" fill="#0099FF"/>
<path fill-rule="evenodd" clip-rule="evenodd" d="M15.2642 2.20115C15.2642 1.45494 15.8691 0.849976 16.6153 0.849976C17.3615 0.849976 17.9665 1.45494 17.9665 2.20115V9.40817C17.9665 10.1544 17.3615 10.7593 16.6153 10.7593C15.8691 10.7593 15.2642 10.1544 15.2642 9.40817V2.20115ZM16.6153 1.14998C16.0348 1.14998 15.5642 1.62062 15.5642 2.20115V9.40817C15.5642 9.98869 16.0348 10.4593 16.6153 10.4593C17.1959 10.4593 17.6665 9.98869 17.6665 9.40817V2.20115C17.6665 1.62062 17.1959 1.14998 16.6153 1.14998Z" fill="#0099FF"/>
<path d="M7.27244 5.57362C6.80342 5.10453 6.04284 5.10453 5.57375 5.57362C5.10465 6.04272 5.10465 6.80322 5.57375 7.27232L10.6699 12.3685C11.1389 12.8376 11.8996 12.8376 12.3686 12.3685C12.8377 11.8994 12.8377 11.1389 12.3686 10.6698L7.27244 5.57362Z" fill="#0099FF"/>
<path fill-rule="evenodd" clip-rule="evenodd" d="M7.37837 5.46754C7.37837 5.46754 7.37837 5.46754 7.37837 5.46754L12.4745 10.5637C13.0022 11.0914 13.0022 11.9468 12.4745 12.4745C12.4745 12.4745 12.4745 12.4745 12.4745 12.4745M7.37837 5.46754C6.85077 4.93985 5.9952 4.93986 5.46753 5.46753ZM7.16622 5.67965C6.75579 5.26915 6.09019 5.26914 5.67967 5.67966C5.26915 6.09018 5.26915 6.75571 5.67967 7.16622L10.7758 12.2624C11.1863 12.6729 11.8519 12.6729 12.2624 12.2624C12.6729 11.8519 12.6729 11.1863 12.2624 10.7758L7.16622 5.67965ZM5.46753 5.46753C4.93986 5.99521 4.93986 6.85068 5.46753 7.37836ZM5.46753 7.37836L10.5637 12.4745ZM10.5637 12.4745C10.5637 12.4745 10.5637 12.4745 10.5637 12.4745Z" fill="#0099FF"/>
<path d="M10.6699 20.862L5.57375 25.9581C5.10465 26.4272 5.10465 27.1877 5.57375 27.6568C6.04276 28.1259 6.80342 28.1259 7.27244 27.6568L12.3686 22.5606C12.8377 22.0916 12.8377 21.3311 12.3686 20.862C11.8995 20.3929 11.1389 20.3929 10.6699 20.862Z" fill="#0099FF"/>
<path fill-rule="evenodd" clip-rule="evenodd" d="M10.5637 20.7559C11.0913 20.2282 11.9468 20.2282 12.4745 20.7559C13.0022 21.2835 13.0022 22.139 12.4745 22.6667L7.37836 27.7628C7.37836 27.7628 7.37837 27.7628 7.37836 27.7628C6.85077 28.2905 5.99512 28.2905 5.46753 27.7629M5.46753 27.7629C4.93986 27.2352 4.93986 26.3797 5.46753 25.852L10.5637 20.7559C10.5637 20.7559 10.5637 20.7559 10.5637 20.7559M12.2624 20.968C11.8519 20.5575 11.1863 20.5575 10.7758 20.968L5.67966 26.0642C5.26914 26.4747 5.26914 27.1402 5.67966 27.5507C6.0901 27.9612 6.75578 27.9612 7.16621 27.5507L12.2624 22.4546C12.6729 22.044 12.6729 21.3785 12.2624 20.968Z" fill="#0099FF"/>
<path d="M22.5608 12.3685L27.6569 7.27232C28.126 6.80322 28.126 6.04272 27.6569 5.57362C27.1879 5.10453 26.4273 5.10453 25.9583 5.57362L20.8621 10.6698C20.393 11.1389 20.393 11.8994 20.8621 12.3685C21.3311 12.8376 22.0918 12.8376 22.5608 12.3685Z" fill="#0099FF"/>
<path fill-rule="evenodd" clip-rule="evenodd" d="M27.7631 5.46753C27.2355 4.93985 26.3799 4.93987 25.8523 5.46753ZM27.7631 5.46753C28.2908 5.99521 28.2908 6.85069 27.7631 7.37836L22.6669 12.4745C22.6669 12.4745 22.6669 12.4745 22.6669 12.4745C22.1393 13.0022 21.2837 13.0022 20.7561 12.4745M20.7561 12.4745C20.2284 11.9468 20.2284 11.0914 20.7561 10.5637L25.8523 5.46753M27.551 5.67966C27.1405 5.26916 26.4749 5.26914 26.0644 5.67967L20.9682 10.7758C20.5577 11.1863 20.5577 11.8519 20.9682 12.2624C21.3787 12.6729 22.0444 12.6729 22.4548 12.2624L27.551 7.16623C27.9615 6.75571 27.9615 6.09018 27.551 5.67966Z" fill="#0099FF"/>
<path fill-rule="evenodd" clip-rule="evenodd" d="M2.20127 15.264C1.45506 15.264 0.850098 15.869 0.850098 16.6152C0.850098 17.3614 1.45506 17.9664 2.20127 17.9664H9.40829C10.1545 17.9664 10.7595 17.3614 10.7595 16.6152C10.7595 15.869 10.1545 15.264 9.40829 15.264H2.20127Z" fill="#0099FF"/>
</svg>
