<svg width="328" height="352" viewBox="0 0 328 352" fill="none" xmlns="http://www.w3.org/2000/svg">
<g filter="url(#filter0_d)">
<rect x="126" y="16" width="182" height="246" rx="5" fill="white"/>
<path d="M146.916 124.656C146.192 124.448 145.665 124.193 145.333 123.891C145.005 123.586 144.841 123.211 144.841 122.766C144.841 122.262 145.042 121.846 145.443 121.518C145.848 121.187 146.372 121.021 147.017 121.021C147.456 121.021 147.847 121.106 148.19 121.276C148.536 121.446 148.802 121.68 148.99 121.979C149.18 122.278 149.275 122.605 149.275 122.959H148.427C148.427 122.573 148.304 122.269 148.058 122.05C147.812 121.827 147.465 121.716 147.017 121.716C146.601 121.716 146.275 121.808 146.041 121.992C145.81 122.174 145.694 122.427 145.694 122.753C145.694 123.013 145.804 123.235 146.023 123.416C146.246 123.595 146.623 123.759 147.153 123.908C147.686 124.058 148.102 124.223 148.401 124.405C148.703 124.584 148.925 124.793 149.069 125.033C149.215 125.274 149.289 125.556 149.289 125.882C149.289 126.4 149.086 126.816 148.682 127.13C148.278 127.44 147.737 127.595 147.061 127.595C146.621 127.595 146.211 127.512 145.83 127.345C145.449 127.175 145.155 126.944 144.947 126.651C144.742 126.358 144.639 126.025 144.639 125.653H145.487C145.487 126.04 145.629 126.346 145.914 126.572C146.201 126.794 146.583 126.906 147.061 126.906C147.506 126.906 147.847 126.815 148.084 126.633C148.322 126.451 148.44 126.204 148.44 125.89C148.44 125.577 148.331 125.335 148.111 125.165C147.891 124.992 147.493 124.823 146.916 124.656ZM153.991 124.55H151.218V126.818H154.439V127.508H150.374V121.109H154.395V121.803H151.218V123.86H153.991V124.55ZM160.407 127.508H159.559L156.337 122.577V127.508H155.489V121.109H156.337L159.567 126.062V121.109H160.407V127.508ZM161.905 127.508V121.109H163.711C164.268 121.109 164.76 121.232 165.188 121.478C165.616 121.724 165.945 122.074 166.177 122.529C166.411 122.983 166.53 123.504 166.533 124.093V124.502C166.533 125.105 166.416 125.634 166.181 126.088C165.95 126.542 165.617 126.891 165.184 127.134C164.753 127.377 164.25 127.502 163.676 127.508H161.905ZM162.749 121.803V126.818H163.637C164.287 126.818 164.792 126.615 165.153 126.211C165.516 125.807 165.698 125.231 165.698 124.484V124.111C165.698 123.384 165.526 122.82 165.184 122.419C164.844 122.014 164.36 121.809 163.733 121.803H162.749ZM174.289 121.803H172.232V127.508H171.393V121.803H169.341V121.109H174.289V121.803ZM180.156 127.508H179.308V124.55H176.082V127.508H175.238V121.109H176.082V123.86H179.308V121.109H180.156V127.508ZM182.56 127.508H181.716V121.109H182.56V127.508ZM185.992 124.656C185.268 124.448 184.741 124.193 184.41 123.891C184.082 123.586 183.917 123.211 183.917 122.766C183.917 122.262 184.118 121.846 184.52 121.518C184.924 121.187 185.448 121.021 186.093 121.021C186.532 121.021 186.923 121.106 187.266 121.276C187.612 121.446 187.878 121.68 188.066 121.979C188.256 122.278 188.352 122.605 188.352 122.959H187.503C187.503 122.573 187.38 122.269 187.134 122.05C186.888 121.827 186.541 121.716 186.093 121.716C185.677 121.716 185.352 121.808 185.117 121.992C184.886 122.174 184.77 122.427 184.77 122.753C184.77 123.013 184.88 123.235 185.1 123.416C185.322 123.595 185.699 123.759 186.229 123.908C186.762 124.058 187.178 124.223 187.477 124.405C187.779 124.584 188.001 124.793 188.145 125.033C188.292 125.274 188.365 125.556 188.365 125.882C188.365 126.4 188.163 126.816 187.758 127.13C187.354 127.44 186.813 127.595 186.137 127.595C185.697 127.595 185.287 127.512 184.906 127.345C184.525 127.175 184.231 126.944 184.023 126.651C183.818 126.358 183.715 126.025 183.715 125.653H184.563C184.563 126.04 184.706 126.346 184.99 126.572C185.277 126.794 185.659 126.906 186.137 126.906C186.582 126.906 186.923 126.815 187.161 126.633C187.398 126.451 187.517 126.204 187.517 125.89C187.517 125.577 187.407 125.335 187.187 125.165C186.967 124.992 186.569 124.823 185.992 124.656ZM192.531 126.818H195.563V127.508H191.683V121.109H192.531V126.818ZM197.431 127.508H196.587V121.109H197.431V127.508ZM203.895 127.508H203.047L199.826 122.577V127.508H198.978V121.109H199.826L203.056 126.062V121.109H203.895V127.508ZM207.02 124.532L206.237 125.345V127.508H205.394V121.109H206.237V124.273L209.081 121.109H210.1L207.582 123.935L210.298 127.508H209.287L207.02 124.532ZM217.514 121.803H215.457V127.508H214.618V121.803H212.565V121.109H217.514V121.803ZM223.262 124.515C223.262 125.142 223.156 125.69 222.945 126.158C222.734 126.624 222.436 126.98 222.049 127.226C221.662 127.472 221.211 127.595 220.695 127.595C220.191 127.595 219.745 127.472 219.355 127.226C218.965 126.977 218.662 126.624 218.445 126.167C218.231 125.707 218.122 125.176 218.116 124.572V124.111C218.116 123.495 218.223 122.952 218.437 122.48C218.65 122.009 218.952 121.648 219.342 121.399C219.734 121.147 220.183 121.021 220.687 121.021C221.199 121.021 221.65 121.146 222.04 121.395C222.433 121.641 222.734 122 222.945 122.471C223.156 122.94 223.262 123.487 223.262 124.111V124.515ZM222.422 124.102C222.422 123.343 222.27 122.761 221.965 122.357C221.661 121.95 221.234 121.746 220.687 121.746C220.153 121.746 219.733 121.95 219.425 122.357C219.121 122.761 218.964 123.324 218.955 124.045V124.515C218.955 125.25 219.109 125.829 219.417 126.251C219.727 126.67 220.153 126.879 220.695 126.879C221.24 126.879 221.662 126.681 221.961 126.286C222.26 125.887 222.414 125.318 222.422 124.576V124.102ZM228.711 124.322L230.381 121.109H231.339L229.133 125.121V127.508H228.289V125.121L226.083 121.109H227.05L228.711 124.322ZM236.955 124.515C236.955 125.142 236.85 125.69 236.639 126.158C236.428 126.624 236.129 126.98 235.742 127.226C235.355 127.472 234.904 127.595 234.389 127.595C233.885 127.595 233.438 127.472 233.048 127.226C232.659 126.977 232.355 126.624 232.139 126.167C231.925 125.707 231.815 125.176 231.809 124.572V124.111C231.809 123.495 231.916 122.952 232.13 122.48C232.344 122.009 232.646 121.648 233.035 121.399C233.428 121.147 233.876 121.021 234.38 121.021C234.893 121.021 235.344 121.146 235.733 121.395C236.126 121.641 236.428 122 236.639 122.471C236.85 122.94 236.955 123.487 236.955 124.111V124.515ZM236.116 124.102C236.116 123.343 235.963 122.761 235.659 122.357C235.354 121.95 234.928 121.746 234.38 121.746C233.847 121.746 233.426 121.95 233.119 122.357C232.814 122.761 232.657 123.324 232.648 124.045V124.515C232.648 125.25 232.802 125.829 233.11 126.251C233.42 126.67 233.847 126.879 234.389 126.879C234.934 126.879 235.355 126.681 235.654 126.286C235.953 125.887 236.107 125.318 236.116 124.576V124.102ZM242.725 121.109V125.46C242.722 126.063 242.532 126.557 242.154 126.941C241.779 127.324 241.269 127.54 240.625 127.587L240.4 127.595C239.7 127.595 239.142 127.406 238.726 127.029C238.31 126.651 238.099 126.131 238.093 125.469V121.109H238.928V125.442C238.928 125.905 239.056 126.265 239.311 126.523C239.565 126.778 239.929 126.906 240.4 126.906C240.878 126.906 241.243 126.778 241.495 126.523C241.75 126.268 241.877 125.909 241.877 125.447V121.109H242.725ZM246.403 124.919H244.9V127.508H244.052V121.109H246.17C246.891 121.109 247.445 121.273 247.832 121.601C248.221 121.929 248.416 122.407 248.416 123.034C248.416 123.432 248.308 123.78 248.091 124.075C247.877 124.371 247.578 124.593 247.194 124.739L248.697 127.455V127.508H247.792L246.403 124.919ZM244.9 124.229H246.197C246.616 124.229 246.948 124.121 247.194 123.904C247.443 123.687 247.568 123.397 247.568 123.034C247.568 122.638 247.449 122.335 247.212 122.124C246.978 121.913 246.638 121.806 246.192 121.803H244.9V124.229ZM255.364 124.682H252.679V127.508H251.835V121.109H255.799V121.803H252.679V123.992H255.364V124.682ZM259.156 124.919H257.653V127.508H256.805V121.109H258.923C259.644 121.109 260.198 121.273 260.584 121.601C260.974 121.929 261.169 122.407 261.169 123.034C261.169 123.432 261.061 123.78 260.844 124.075C260.63 124.371 260.331 124.593 259.947 124.739L261.45 127.455V127.508H260.545L259.156 124.919ZM257.653 124.229H258.95C259.369 124.229 259.701 124.121 259.947 123.904C260.196 123.687 260.321 123.397 260.321 123.034C260.321 122.638 260.202 122.335 259.965 122.124C259.73 121.913 259.391 121.806 258.945 121.803H257.653V124.229ZM263.261 127.508H262.417V121.109H263.261V127.508ZM268.424 124.55H265.651V126.818H268.873V127.508H264.808V121.109H268.829V121.803H265.651V123.86H268.424V124.55ZM274.84 127.508H273.992L270.771 122.577V127.508H269.923V121.109H270.771L274.001 126.062V121.109H274.84V127.508ZM276.339 127.508V121.109H278.145C278.702 121.109 279.194 121.232 279.622 121.478C280.049 121.724 280.379 122.074 280.61 122.529C280.845 122.983 280.963 123.504 280.966 124.093V124.502C280.966 125.105 280.849 125.634 280.615 126.088C280.383 126.542 280.051 126.891 279.617 127.134C279.187 127.377 278.684 127.502 278.11 127.508H276.339ZM277.183 121.803V126.818H278.07C278.721 126.818 279.226 126.615 279.586 126.211C279.95 125.807 280.131 125.231 280.131 124.484V124.111C280.131 123.384 279.96 122.82 279.617 122.419C279.277 122.014 278.794 121.809 278.167 121.803H277.183Z" fill="#556677"/>
<path d="M192.377 48.0771C192.12 48.4124 191.763 48.6663 191.308 48.8389C190.852 49.0114 190.334 49.0977 189.755 49.0977C189.159 49.0977 188.632 48.9626 188.173 48.6924C187.714 48.4222 187.359 48.0365 187.108 47.5352C186.861 47.0306 186.732 46.443 186.723 45.7725V45.2158C186.723 44.1416 186.98 43.3034 187.494 42.7012C188.008 42.0957 188.726 41.793 189.647 41.793C190.438 41.793 191.067 41.9883 191.532 42.3789C191.998 42.7695 192.278 43.3327 192.372 44.0684H191.161C191.024 43.2122 190.528 42.7842 189.672 42.7842C189.118 42.7842 188.697 42.9844 188.407 43.3848C188.121 43.7819 187.973 44.3662 187.963 45.1377V45.6846C187.963 46.4528 188.124 47.0501 188.446 47.4766C188.772 47.8997 189.223 48.1113 189.799 48.1113C190.43 48.1113 190.88 47.9681 191.146 47.6816V46.29H189.682V45.3525H192.377V48.0771ZM195.946 49.0977C195.194 49.0977 194.584 48.8617 194.115 48.3896C193.65 47.9144 193.417 47.2829 193.417 46.4951V46.3486C193.417 45.8213 193.518 45.3509 193.72 44.9375C193.925 44.5208 194.211 44.1969 194.579 43.9658C194.947 43.7347 195.357 43.6191 195.81 43.6191C196.529 43.6191 197.084 43.8486 197.475 44.3076C197.868 44.7666 198.065 45.416 198.065 46.2559V46.7344H194.613C194.649 47.1706 194.794 47.5156 195.048 47.7695C195.305 48.0234 195.627 48.1504 196.015 48.1504C196.558 48.1504 197.001 47.9307 197.343 47.4912L197.982 48.1016C197.771 48.4173 197.488 48.6631 197.133 48.8389C196.781 49.0114 196.386 49.0977 195.946 49.0977ZM195.805 44.5713C195.479 44.5713 195.215 44.6852 195.014 44.9131C194.815 45.141 194.688 45.4583 194.633 45.8652H196.894V45.7773C196.868 45.3802 196.762 45.0807 196.576 44.8789C196.391 44.6738 196.133 44.5713 195.805 44.5713ZM200.478 42.4326V43.7168H201.41V44.5957H200.478V47.5449C200.478 47.7467 200.517 47.8932 200.595 47.9844C200.676 48.0723 200.819 48.1162 201.024 48.1162C201.161 48.1162 201.299 48.0999 201.439 48.0674V48.9854C201.169 49.0602 200.909 49.0977 200.658 49.0977C199.747 49.0977 199.291 48.5947 199.291 47.5889V44.5957H198.422V43.7168H199.291V42.4326H200.478ZM204.926 49V41.8906H207.025C207.654 41.8906 208.21 42.0306 208.695 42.3105C209.184 42.5905 209.561 42.9876 209.828 43.502C210.095 44.0163 210.229 44.6055 210.229 45.2695V45.626C210.229 46.2998 210.093 46.8923 209.823 47.4033C209.556 47.9144 209.174 48.3083 208.676 48.585C208.181 48.8617 207.613 49 206.972 49H204.926ZM206.161 42.8867V48.0137H206.967C207.615 48.0137 208.111 47.8118 208.456 47.4082C208.804 47.0013 208.982 46.4186 208.988 45.6602V45.2646C208.988 44.4932 208.821 43.904 208.485 43.4971C208.15 43.0902 207.663 42.8867 207.025 42.8867H206.161ZM212.606 49H211.42V43.7168H212.606V49ZM211.347 42.3447C211.347 42.1624 211.404 42.0111 211.518 41.8906C211.635 41.7702 211.801 41.71 212.016 41.71C212.23 41.71 212.396 41.7702 212.514 41.8906C212.631 42.0111 212.689 42.1624 212.689 42.3447C212.689 42.5238 212.631 42.6735 212.514 42.7939C212.396 42.9111 212.23 42.9697 212.016 42.9697C211.801 42.9697 211.635 42.9111 211.518 42.7939C211.404 42.6735 211.347 42.5238 211.347 42.3447ZM216.864 47.5645C216.864 47.3529 216.776 47.1917 216.601 47.0811C216.428 46.9704 216.14 46.8727 215.736 46.7881C215.333 46.7035 214.996 46.596 214.726 46.4658C214.133 46.1794 213.837 45.7643 213.837 45.2207C213.837 44.765 214.029 44.3841 214.413 44.0781C214.797 43.7721 215.285 43.6191 215.878 43.6191C216.509 43.6191 217.019 43.7754 217.406 44.0879C217.797 44.4004 217.992 44.8057 217.992 45.3037H216.806C216.806 45.0758 216.721 44.887 216.552 44.7373C216.382 44.5843 216.158 44.5078 215.878 44.5078C215.618 44.5078 215.404 44.568 215.238 44.6885C215.076 44.8089 214.994 44.9701 214.994 45.1719C214.994 45.3542 215.071 45.4958 215.224 45.5967C215.377 45.6976 215.686 45.8001 216.151 45.9043C216.617 46.0052 216.981 46.1273 217.245 46.2705C217.512 46.4105 217.709 46.5798 217.836 46.7783C217.966 46.9769 218.031 47.2178 218.031 47.501C218.031 47.9762 217.834 48.362 217.44 48.6582C217.047 48.9512 216.531 49.0977 215.893 49.0977C215.46 49.0977 215.074 49.0195 214.735 48.8633C214.397 48.707 214.133 48.4922 213.944 48.2188C213.756 47.9453 213.661 47.6507 213.661 47.335H214.813C214.83 47.6149 214.936 47.8314 215.131 47.9844C215.326 48.1341 215.585 48.209 215.907 48.209C216.22 48.209 216.457 48.1504 216.62 48.0332C216.783 47.9128 216.864 47.7565 216.864 47.5645ZM221.239 48.1504C221.535 48.1504 221.781 48.0641 221.977 47.8916C222.172 47.7191 222.276 47.5059 222.289 47.252H223.407C223.394 47.5807 223.292 47.8883 223.1 48.1748C222.908 48.458 222.647 48.6826 222.318 48.8486C221.99 49.0146 221.635 49.0977 221.254 49.0977C220.515 49.0977 219.929 48.8584 219.496 48.3799C219.063 47.9014 218.847 47.2406 218.847 46.3975V46.2754C218.847 45.4714 219.062 44.8285 219.491 44.3467C219.921 43.8617 220.507 43.6191 221.249 43.6191C221.877 43.6191 222.388 43.8031 222.782 44.1709C223.179 44.5355 223.388 45.0156 223.407 45.6113H222.289C222.276 45.3086 222.172 45.0596 221.977 44.8643C221.785 44.6689 221.539 44.5713 221.239 44.5713C220.855 44.5713 220.559 44.7113 220.351 44.9912C220.142 45.2679 220.036 45.6895 220.033 46.2559V46.4463C220.033 47.0192 220.136 47.4473 220.341 47.7305C220.549 48.0104 220.849 48.1504 221.239 48.1504ZM224.081 46.3096C224.081 45.792 224.184 45.3265 224.389 44.9131C224.594 44.4964 224.882 44.1774 225.253 43.9561C225.624 43.7314 226.05 43.6191 226.532 43.6191C227.245 43.6191 227.823 43.8486 228.266 44.3076C228.712 44.7666 228.952 45.3753 228.988 46.1338L228.993 46.4121C228.993 46.9329 228.892 47.3984 228.69 47.8086C228.492 48.2188 228.205 48.5361 227.831 48.7607C227.46 48.9854 227.03 49.0977 226.542 49.0977C225.797 49.0977 225.199 48.8503 224.75 48.3555C224.304 47.8574 224.081 47.195 224.081 46.3682V46.3096ZM225.268 46.4121C225.268 46.9557 225.38 47.3822 225.604 47.6914C225.829 47.9974 226.142 48.1504 226.542 48.1504C226.942 48.1504 227.253 47.9941 227.475 47.6816C227.699 47.3691 227.812 46.9118 227.812 46.3096C227.812 45.7757 227.696 45.3525 227.465 45.04C227.237 44.7275 226.926 44.5713 226.532 44.5713C226.145 44.5713 225.837 44.7259 225.609 45.0352C225.382 45.3411 225.268 45.8001 225.268 46.4121ZM233.197 48.4824C232.849 48.8926 232.354 49.0977 231.713 49.0977C231.14 49.0977 230.705 48.93 230.409 48.5947C230.116 48.2594 229.97 47.7744 229.97 47.1396V43.7168H231.156V47.125C231.156 47.7956 231.435 48.1309 231.991 48.1309C232.567 48.1309 232.956 47.9242 233.158 47.5107V43.7168H234.345V49H233.227L233.197 48.4824ZM236.654 43.7168L236.688 44.3271C237.079 43.8551 237.592 43.6191 238.227 43.6191C239.327 43.6191 239.887 44.249 239.906 45.5088V49H238.72V45.5771C238.72 45.2419 238.646 44.9945 238.5 44.835C238.357 44.6722 238.121 44.5908 237.792 44.5908C237.313 44.5908 236.957 44.8073 236.723 45.2402V49H235.536V43.7168H236.654ZM242.606 42.4326V43.7168H243.539V44.5957H242.606V47.5449C242.606 47.7467 242.646 47.8932 242.724 47.9844C242.805 48.0723 242.948 48.1162 243.153 48.1162C243.29 48.1162 243.428 48.0999 243.568 48.0674V48.9854C243.298 49.0602 243.038 49.0977 242.787 49.0977C241.876 49.0977 241.42 48.5947 241.42 47.5889V44.5957H240.551V43.7168H241.42V42.4326H242.606Z" fill="#556677"/>
<path d="M151.547 81.0204H149.49V86.7245H148.651V81.0204H146.599V80.326H151.547V81.0204ZM153.182 82.5453C153.542 82.1029 154.011 81.8817 154.588 81.8817C155.593 81.8817 156.1 82.4486 156.109 83.5824V86.7245H155.296V83.578C155.293 83.2352 155.214 82.9818 155.058 82.8177C154.906 82.6537 154.667 82.5717 154.342 82.5717C154.078 82.5717 153.847 82.642 153.648 82.7826C153.448 82.9232 153.293 83.1078 153.182 83.3363V86.7245H152.369V79.9745H153.182V82.5453ZM159.299 86.8124C158.655 86.8124 158.13 86.6014 157.726 86.1796C157.322 85.7548 157.119 85.1879 157.119 84.4789V84.3295C157.119 83.8578 157.209 83.4374 157.387 83.0682C157.569 82.6962 157.821 82.4061 158.143 82.1981C158.469 81.9872 158.82 81.8817 159.198 81.8817C159.816 81.8817 160.297 82.0853 160.639 82.4926C160.982 82.8998 161.154 83.4828 161.154 84.2416V84.58H157.932C157.944 85.0487 158.08 85.4281 158.341 85.7181C158.605 86.0052 158.939 86.1488 159.343 86.1488C159.63 86.1488 159.873 86.0902 160.073 85.973C160.272 85.8558 160.446 85.7006 160.595 85.5072L161.092 85.8939C160.694 86.5062 160.096 86.8124 159.299 86.8124ZM159.198 82.5497C158.87 82.5497 158.594 82.6698 158.372 82.91C158.149 83.1473 158.011 83.4813 157.959 83.912H160.341V83.8505C160.317 83.4374 160.206 83.118 160.007 82.8925C159.807 82.6639 159.538 82.5497 159.198 82.5497ZM163.593 85.5336L164.7 81.9696H165.57L163.658 87.4584C163.363 88.2494 162.892 88.6449 162.248 88.6449L162.094 88.6317L161.791 88.5746V87.9154L162.01 87.933C162.286 87.933 162.5 87.8773 162.652 87.766C162.807 87.6547 162.935 87.451 163.034 87.1552L163.215 86.6718L161.518 81.9696H162.406L163.593 85.5336ZM168.339 84.3075C168.339 83.5663 168.51 82.9774 168.853 82.5409C169.196 82.1014 169.65 81.8817 170.215 81.8817C170.795 81.8817 171.248 82.0868 171.573 82.4969L171.613 81.9696H172.355V86.6102C172.355 87.2255 172.172 87.7103 171.806 88.0648C171.443 88.4193 170.953 88.5966 170.338 88.5966C169.995 88.5966 169.66 88.5233 169.332 88.3768C169.004 88.2303 168.753 88.0297 168.58 87.7748L169.002 87.287C169.351 87.7177 169.777 87.933 170.281 87.933C170.677 87.933 170.984 87.8217 171.204 87.599C171.427 87.3763 171.538 87.0629 171.538 86.6586V86.2499C171.213 86.6249 170.769 86.8124 170.206 86.8124C169.65 86.8124 169.198 86.5883 168.853 86.14C168.51 85.6918 168.339 85.0809 168.339 84.3075ZM169.156 84.3998C169.156 84.9359 169.266 85.3578 169.486 85.6654C169.705 85.9701 170.013 86.1224 170.408 86.1224C170.921 86.1224 171.298 85.8895 171.538 85.4237V83.2528C171.289 82.7987 170.915 82.5717 170.417 82.5717C170.022 82.5717 169.713 82.7255 169.49 83.0331C169.267 83.3407 169.156 83.7963 169.156 84.3998ZM175.559 86.8124C174.914 86.8124 174.39 86.6014 173.986 86.1796C173.581 85.7548 173.379 85.1879 173.379 84.4789V84.3295C173.379 83.8578 173.469 83.4374 173.647 83.0682C173.829 82.6962 174.081 82.4061 174.403 82.1981C174.728 81.9872 175.08 81.8817 175.458 81.8817C176.076 81.8817 176.556 82.0853 176.899 82.4926C177.242 82.8998 177.413 83.4828 177.413 84.2416V84.58H174.192C174.204 85.0487 174.34 85.4281 174.601 85.7181C174.865 86.0052 175.198 86.1488 175.603 86.1488C175.89 86.1488 176.133 86.0902 176.332 85.973C176.531 85.8558 176.706 85.7006 176.855 85.5072L177.352 85.8939C176.953 86.5062 176.356 86.8124 175.559 86.8124ZM175.458 82.5497C175.13 82.5497 174.854 82.6698 174.632 82.91C174.409 83.1473 174.271 83.4813 174.219 83.912H176.6V83.8505C176.577 83.4374 176.466 83.118 176.266 82.8925C176.067 82.6639 175.798 82.5497 175.458 82.5497ZM179.461 80.8182V81.9696H180.349V82.598H179.461V85.5468C179.461 85.7372 179.501 85.8807 179.58 85.9774C179.659 86.0712 179.794 86.118 179.984 86.118C180.078 86.118 180.207 86.1005 180.371 86.0653V86.7245C180.157 86.7831 179.949 86.8124 179.747 86.8124C179.384 86.8124 179.11 86.7025 178.925 86.4828C178.74 86.2631 178.648 85.951 178.648 85.5468V82.598H177.782V81.9696H178.648V80.8182H179.461Z" fill="#556677"/>
<path d="M226.625 83.5385L228.295 80.326H229.253L227.047 84.3383V86.7245H226.203V84.3383L223.997 80.326H224.964L226.625 83.5385ZM229.446 84.3031C229.446 83.8373 229.537 83.4183 229.719 83.0463C229.903 82.6742 230.158 82.3871 230.483 82.1849C230.812 81.9828 231.185 81.8817 231.604 81.8817C232.251 81.8817 232.774 82.1058 233.173 82.5541C233.574 83.0023 233.775 83.5985 233.775 84.3427V84.3998C233.775 84.8627 233.686 85.2787 233.507 85.6478C233.331 86.014 233.078 86.2997 232.747 86.5048C232.418 86.7098 232.041 86.8124 231.613 86.8124C230.968 86.8124 230.445 86.5883 230.044 86.14C229.646 85.6918 229.446 85.0985 229.446 84.3602V84.3031ZM230.264 84.3998C230.264 84.9271 230.385 85.3505 230.628 85.6698C230.875 85.9891 231.203 86.1488 231.613 86.1488C232.026 86.1488 232.354 85.9877 232.597 85.6654C232.84 85.3402 232.962 84.8861 232.962 84.3031C232.962 83.7816 232.837 83.3597 232.588 83.0375C232.342 82.7123 232.014 82.5497 231.604 82.5497C231.203 82.5497 230.879 82.7094 230.633 83.0287C230.387 83.348 230.264 83.8051 230.264 84.3998ZM237.73 86.2543C237.414 86.6263 236.949 86.8124 236.337 86.8124C235.83 86.8124 235.443 86.6659 235.177 86.3729C234.913 86.077 234.78 85.6405 234.777 85.0634V81.9696H235.59V85.0414C235.59 85.7621 235.883 86.1224 236.469 86.1224C237.09 86.1224 237.503 85.891 237.708 85.4281V81.9696H238.521V86.7245H237.748L237.73 86.2543ZM241.799 84.3075C241.799 83.5663 241.971 82.9774 242.313 82.5409C242.656 82.1014 243.11 81.8817 243.676 81.8817C244.256 81.8817 244.708 82.0868 245.034 82.4969L245.073 81.9696H245.816V86.6102C245.816 87.2255 245.633 87.7103 245.267 88.0648C244.903 88.4193 244.414 88.5966 243.799 88.5966C243.456 88.5966 243.121 88.5233 242.792 88.3768C242.464 88.2303 242.214 88.0297 242.041 87.7748L242.463 87.287C242.812 87.7177 243.238 87.933 243.742 87.933C244.137 87.933 244.445 87.8217 244.665 87.599C244.887 87.3763 244.999 87.0629 244.999 86.6586V86.2499C244.673 86.6249 244.229 86.8124 243.667 86.8124C243.11 86.8124 242.659 86.5883 242.313 86.14C241.971 85.6918 241.799 85.0809 241.799 84.3075ZM242.617 84.3998C242.617 84.9359 242.727 85.3578 242.946 85.6654C243.166 85.9701 243.474 86.1224 243.869 86.1224C244.382 86.1224 244.758 85.8895 244.999 85.4237V83.2528C244.75 82.7987 244.376 82.5717 243.878 82.5717C243.482 82.5717 243.173 82.7255 242.951 83.0331C242.728 83.3407 242.617 83.7963 242.617 84.3998ZM249.02 86.8124C248.375 86.8124 247.851 86.6014 247.446 86.1796C247.042 85.7548 246.84 85.1879 246.84 84.4789V84.3295C246.84 83.8578 246.929 83.4374 247.108 83.0682C247.29 82.6962 247.542 82.4061 247.864 82.1981C248.189 81.9872 248.541 81.8817 248.918 81.8817C249.537 81.8817 250.017 82.0853 250.36 82.4926C250.703 82.8998 250.874 83.4828 250.874 84.2416V84.58H247.653C247.665 85.0487 247.801 85.4281 248.062 85.7181C248.325 86.0052 248.659 86.1488 249.063 86.1488C249.351 86.1488 249.594 86.0902 249.793 85.973C249.992 85.8558 250.167 85.7006 250.316 85.5072L250.812 85.8939C250.414 86.5062 249.816 86.8124 249.02 86.8124ZM248.918 82.5497C248.59 82.5497 248.315 82.6698 248.092 82.91C247.87 83.1473 247.732 83.4813 247.679 83.912H250.061V83.8505C250.038 83.4374 249.926 83.118 249.727 82.8925C249.528 82.6639 249.258 82.5497 248.918 82.5497ZM252.922 80.8182V81.9696H253.81V82.598H252.922V85.5468C252.922 85.7372 252.961 85.8807 253.041 85.9774C253.12 86.0712 253.254 86.118 253.445 86.118C253.539 86.118 253.667 86.1005 253.832 86.0653V86.7245C253.618 86.7831 253.41 86.8124 253.208 86.8124C252.844 86.8124 252.57 86.7025 252.386 86.4828C252.201 86.2631 252.109 85.951 252.109 85.5468V82.598H251.243V81.9696H252.109V80.8182H252.922Z" fill="#556677"/>
<path d="M150.383 70.5948C150.383 70.3182 150.295 70.0903 150.119 69.9113C149.943 69.729 149.65 69.5662 149.24 69.423C148.83 69.2765 148.511 69.1414 148.283 69.0177C147.524 68.6108 147.145 68.0086 147.145 67.2111C147.145 66.6707 147.31 66.2264 147.638 65.8781C147.967 65.5297 148.413 65.323 148.976 65.2579V64.1935H149.758V65.2677C150.324 65.3491 150.762 65.59 151.071 65.9904C151.38 66.3875 151.535 66.9051 151.535 67.5431H150.353C150.353 67.1329 150.26 66.8107 150.075 66.5763C149.893 66.3387 149.644 66.2198 149.328 66.2198C149.015 66.2198 148.771 66.3045 148.595 66.4738C148.42 66.643 148.332 66.8855 148.332 67.2013C148.332 67.4845 148.418 67.7124 148.591 67.8849C148.766 68.0542 149.063 68.2153 149.479 68.3683C149.896 68.5213 150.223 68.6629 150.461 68.7931C150.698 68.9233 150.899 69.073 151.061 69.2423C151.224 69.4083 151.349 69.6004 151.437 69.8185C151.525 70.0366 151.569 70.2921 151.569 70.5851C151.569 71.1352 151.4 71.5812 151.061 71.923C150.726 72.2648 150.257 72.4666 149.655 72.5284V73.4806H148.879V72.5333C148.234 72.4617 147.738 72.2306 147.389 71.84C147.044 71.4493 146.872 70.9318 146.872 70.2872H148.058C148.058 70.6974 148.161 71.0148 148.366 71.2394C148.574 71.464 148.867 71.5763 149.245 71.5763C149.616 71.5763 149.898 71.4868 150.09 71.3077C150.285 71.1287 150.383 70.8911 150.383 70.5948ZM155.812 72.4503H154.631V66.7423L152.887 67.338V66.337L155.661 65.3165H155.812V72.4503ZM162.917 69.4572C162.917 70.4793 162.725 71.2508 162.341 71.7716C161.96 72.2892 161.379 72.548 160.597 72.548C159.829 72.548 159.25 72.2957 158.859 71.7911C158.472 71.2833 158.273 70.533 158.263 69.5402V68.3097C158.263 67.2876 158.454 66.521 158.835 66.0099C159.219 65.4988 159.803 65.2433 160.588 65.2433C161.366 65.2433 161.945 65.4923 162.326 65.9904C162.71 66.4884 162.907 67.2338 162.917 68.2267V69.4572ZM161.73 68.129C161.73 67.4617 161.639 66.9734 161.457 66.6642C161.274 66.3517 160.985 66.1954 160.588 66.1954C160.2 66.1954 159.915 66.3435 159.733 66.6398C159.551 66.9327 159.455 67.3917 159.445 68.0167V69.6281C159.445 70.2921 159.538 70.7869 159.723 71.1124C159.909 71.4379 160.2 71.6007 160.597 71.6007C160.978 71.6007 161.26 71.451 161.442 71.1515C161.624 70.8488 161.72 70.3767 161.73 69.7355V68.129ZM166.31 69.7697C166.31 68.9559 166.499 68.3032 166.877 67.8116C167.254 67.3169 167.76 67.0695 168.395 67.0695C168.955 67.0695 169.408 67.2648 169.753 67.6554V64.9503H170.939V72.4503H169.865L169.806 71.9034C169.452 72.3331 168.978 72.548 168.385 72.548C167.767 72.548 167.266 72.299 166.882 71.8009C166.501 71.3029 166.31 70.6258 166.31 69.7697ZM167.497 69.8722C167.497 70.4093 167.599 70.8292 167.804 71.132C168.013 71.4314 168.307 71.5812 168.688 71.5812C169.173 71.5812 169.528 71.3647 169.753 70.9318V68.6759C169.535 68.2527 169.183 68.0411 168.698 68.0411C168.314 68.0411 168.018 68.1941 167.809 68.5001C167.601 68.8029 167.497 69.2602 167.497 69.8722ZM173.439 72.4503H172.253V67.1671H173.439V72.4503ZM172.179 65.795C172.179 65.6128 172.236 65.4614 172.35 65.3409C172.468 65.2205 172.634 65.1603 172.848 65.1603C173.063 65.1603 173.229 65.2205 173.346 65.3409C173.464 65.4614 173.522 65.6128 173.522 65.795C173.522 65.9741 173.464 66.1238 173.346 66.2443C173.229 66.3615 173.063 66.42 172.848 66.42C172.634 66.42 172.468 66.3615 172.35 66.2443C172.236 66.1238 172.179 65.9741 172.179 65.795ZM177.697 71.0148C177.697 70.8032 177.609 70.642 177.433 70.5314C177.261 70.4207 176.973 70.323 176.569 70.2384C176.165 70.1538 175.829 70.0463 175.558 69.9161C174.966 69.6297 174.67 69.2146 174.67 68.671C174.67 68.2153 174.862 67.8344 175.246 67.5284C175.63 67.2225 176.118 67.0695 176.711 67.0695C177.342 67.0695 177.852 67.2257 178.239 67.5382C178.63 67.8507 178.825 68.256 178.825 68.754H177.638C177.638 68.5262 177.554 68.3374 177.385 68.1876C177.215 68.0346 176.991 67.9581 176.711 67.9581C176.45 67.9581 176.237 68.0184 176.071 68.1388C175.908 68.2592 175.827 68.4204 175.827 68.6222C175.827 68.8045 175.903 68.9461 176.056 69.047C176.209 69.1479 176.519 69.2504 176.984 69.3546C177.45 69.4555 177.814 69.5776 178.078 69.7208C178.345 69.8608 178.542 70.0301 178.669 70.2286C178.799 70.4272 178.864 70.6681 178.864 70.9513C178.864 71.4266 178.667 71.8123 178.273 72.1085C177.879 72.4015 177.363 72.548 176.725 72.548C176.292 72.548 175.907 72.4698 175.568 72.3136C175.23 72.1573 174.966 71.9425 174.777 71.6691C174.588 71.3956 174.494 71.101 174.494 70.7853H175.646C175.663 71.0652 175.768 71.2817 175.964 71.4347C176.159 71.5844 176.418 71.6593 176.74 71.6593C177.052 71.6593 177.29 71.6007 177.453 71.4835C177.616 71.3631 177.697 71.2068 177.697 71.0148ZM182.072 71.6007C182.368 71.6007 182.614 71.5144 182.809 71.3419C183.005 71.1694 183.109 70.9562 183.122 70.7023H184.24C184.227 71.031 184.124 71.3387 183.932 71.6251C183.74 71.9083 183.48 72.1329 183.151 72.299C182.822 72.465 182.468 72.548 182.087 72.548C181.348 72.548 180.762 72.3087 180.329 71.8302C179.896 71.3517 179.679 70.6909 179.679 69.8478V69.7257C179.679 68.9217 179.894 68.2788 180.324 67.797C180.754 67.312 181.34 67.0695 182.082 67.0695C182.71 67.0695 183.221 67.2534 183.615 67.6212C184.012 67.9858 184.22 68.4659 184.24 69.0616H183.122C183.109 68.7589 183.005 68.5099 182.809 68.3146C182.617 68.1193 182.372 68.0216 182.072 68.0216C181.688 68.0216 181.392 68.1616 181.183 68.4415C180.975 68.7182 180.869 69.1398 180.866 69.7062V69.8966C180.866 70.4695 180.969 70.8976 181.174 71.1808C181.382 71.4607 181.681 71.6007 182.072 71.6007ZM184.914 69.7599C184.914 69.2423 185.016 68.7768 185.221 68.3634C185.427 67.9467 185.715 67.6277 186.086 67.4064C186.457 67.1818 186.883 67.0695 187.365 67.0695C188.078 67.0695 188.656 67.299 189.098 67.7579C189.544 68.2169 189.785 68.8256 189.821 69.5841L189.826 69.8624C189.826 70.3833 189.725 70.8488 189.523 71.2589C189.325 71.6691 189.038 71.9865 188.664 72.2111C188.293 72.4357 187.863 72.548 187.375 72.548C186.629 72.548 186.032 72.3006 185.583 71.8058C185.137 71.3077 184.914 70.6453 184.914 69.8185V69.7599ZM186.1 69.8624C186.1 70.406 186.213 70.8325 186.437 71.1417C186.662 71.4477 186.974 71.6007 187.375 71.6007C187.775 71.6007 188.086 71.4445 188.307 71.132C188.532 70.8195 188.644 70.3621 188.644 69.7599C188.644 69.226 188.529 68.8029 188.298 68.4904C188.07 68.1779 187.759 68.0216 187.365 68.0216C186.978 68.0216 186.67 68.1762 186.442 68.4855C186.214 68.7915 186.1 69.2504 186.1 69.8624ZM194.03 71.9327C193.682 72.3429 193.187 72.548 192.546 72.548C191.973 72.548 191.538 72.3803 191.242 72.045C190.949 71.7098 190.802 71.2247 190.802 70.59V67.1671H191.989V70.5753C191.989 71.2459 192.267 71.5812 192.824 71.5812C193.4 71.5812 193.789 71.3745 193.991 70.9611V67.1671H195.177V72.4503H194.059L194.03 71.9327ZM197.487 67.1671L197.521 67.7775C197.912 67.3055 198.425 67.0695 199.059 67.0695C200.16 67.0695 200.719 67.6993 200.739 68.9591V72.4503H199.552V69.0275C199.552 68.6922 199.479 68.4448 199.333 68.2853C199.19 68.1225 198.954 68.0411 198.625 68.0411C198.146 68.0411 197.79 68.2576 197.555 68.6906V72.4503H196.369V67.1671H197.487ZM203.439 65.8829V67.1671H204.372V68.046H203.439V70.9952C203.439 71.1971 203.478 71.3435 203.556 71.4347C203.638 71.5226 203.781 71.5665 203.986 71.5665C204.123 71.5665 204.261 71.5503 204.401 71.5177V72.4357C204.131 72.5105 203.871 72.548 203.62 72.548C202.708 72.548 202.253 72.045 202.253 71.0392V68.046H201.384V67.1671H202.253V65.8829H203.439Z" fill="#556677"/>
<path d="M227.676 72.4503H226.495V66.7423L224.751 67.338V66.337L227.525 65.3165H227.676V72.4503ZM237.271 69.4572C237.271 70.4793 237.079 71.2508 236.695 71.7716C236.314 72.2892 235.733 72.548 234.952 72.548C234.183 72.548 233.604 72.2957 233.213 71.7911C232.826 71.2833 232.627 70.533 232.618 69.5402V68.3097C232.618 67.2876 232.808 66.521 233.189 66.0099C233.573 65.4988 234.157 65.2433 234.942 65.2433C235.72 65.2433 236.299 65.4923 236.68 65.9904C237.064 66.4884 237.261 67.2338 237.271 68.2267V69.4572ZM236.084 68.129C236.084 67.4617 235.993 66.9734 235.811 66.6642C235.629 66.3517 235.339 66.1954 234.942 66.1954C234.555 66.1954 234.27 66.3435 234.087 66.6398C233.905 66.9327 233.809 67.3917 233.799 68.0167V69.6281C233.799 70.2921 233.892 70.7869 234.078 71.1124C234.263 71.4379 234.555 71.6007 234.952 71.6007C235.333 71.6007 235.614 71.451 235.796 71.1515C235.979 70.8488 236.075 70.3767 236.084 69.7355V68.129ZM242.955 69.4572C242.955 70.4793 242.763 71.2508 242.378 71.7716C241.998 72.2892 241.417 72.548 240.635 72.548C239.867 72.548 239.288 72.2957 238.897 71.7911C238.51 71.2833 238.311 70.533 238.301 69.5402V68.3097C238.301 67.2876 238.492 66.521 238.873 66.0099C239.257 65.4988 239.841 65.2433 240.625 65.2433C241.403 65.2433 241.983 65.4923 242.364 65.9904C242.748 66.4884 242.945 67.2338 242.955 68.2267V69.4572ZM241.768 68.129C241.768 67.4617 241.677 66.9734 241.495 66.6642C241.312 66.3517 241.023 66.1954 240.625 66.1954C240.238 66.1954 239.953 66.3435 239.771 66.6398C239.589 66.9327 239.493 67.3917 239.483 68.0167V69.6281C239.483 70.2921 239.576 70.7869 239.761 71.1124C239.947 71.4379 240.238 71.6007 240.635 71.6007C241.016 71.6007 241.298 71.451 241.48 71.1515C241.662 70.8488 241.758 70.3767 241.768 69.7355V68.129ZM248.638 69.4572C248.638 70.4793 248.446 71.2508 248.062 71.7716C247.681 72.2892 247.1 72.548 246.319 72.548C245.551 72.548 244.971 72.2957 244.581 71.7911C244.193 71.2833 243.995 70.533 243.985 69.5402V68.3097C243.985 67.2876 244.175 66.521 244.556 66.0099C244.94 65.4988 245.525 65.2433 246.309 65.2433C247.087 65.2433 247.667 65.4923 248.047 65.9904C248.431 66.4884 248.628 67.2338 248.638 68.2267V69.4572ZM247.452 68.129C247.452 67.4617 247.361 66.9734 247.178 66.6642C246.996 66.3517 246.706 66.1954 246.309 66.1954C245.922 66.1954 245.637 66.3435 245.455 66.6398C245.272 66.9327 245.176 67.3917 245.167 68.0167V69.6281C245.167 70.2921 245.259 70.7869 245.445 71.1124C245.63 71.4379 245.922 71.6007 246.319 71.6007C246.7 71.6007 246.981 71.451 247.164 71.1515C247.346 70.8488 247.442 70.3767 247.452 69.7355V68.129ZM253.604 69.8087V72.4503H252.369V65.3409H255.088C255.883 65.3409 256.513 65.5476 256.978 65.9611C257.447 66.3745 257.681 66.9213 257.681 67.6017C257.681 68.2983 257.452 68.8403 256.993 69.2277C256.537 69.615 255.897 69.8087 255.074 69.8087H253.604ZM253.604 68.8175H255.088C255.528 68.8175 255.863 68.715 256.094 68.5099C256.325 68.3016 256.441 68.0021 256.441 67.6115C256.441 67.2273 256.324 66.9213 256.089 66.6935C255.855 66.4624 255.533 66.3435 255.123 66.337H253.604V68.8175ZM258.36 69.7599C258.36 69.2423 258.462 68.7768 258.667 68.3634C258.873 67.9467 259.161 67.6277 259.532 67.4064C259.903 67.1818 260.329 67.0695 260.811 67.0695C261.524 67.0695 262.102 67.299 262.544 67.7579C262.99 68.2169 263.231 68.8256 263.267 69.5841L263.272 69.8624C263.272 70.3833 263.171 70.8488 262.969 71.2589C262.771 71.6691 262.484 71.9865 262.11 72.2111C261.739 72.4357 261.309 72.548 260.821 72.548C260.075 72.548 259.478 72.3006 259.029 71.8058C258.583 71.3077 258.36 70.6453 258.36 69.8185V69.7599ZM259.546 69.8624C259.546 70.406 259.659 70.8325 259.883 71.1417C260.108 71.4477 260.42 71.6007 260.821 71.6007C261.221 71.6007 261.532 71.4445 261.753 71.132C261.978 70.8195 262.09 70.3621 262.09 69.7599C262.09 69.226 261.975 68.8029 261.744 68.4904C261.516 68.1779 261.205 68.0216 260.811 68.0216C260.424 68.0216 260.116 68.1762 259.888 68.4855C259.66 68.7915 259.546 69.2504 259.546 69.8624ZM265.538 72.4503H264.351V67.1671H265.538V72.4503ZM264.278 65.795C264.278 65.6128 264.335 65.4614 264.449 65.3409C264.566 65.2205 264.732 65.1603 264.947 65.1603C265.162 65.1603 265.328 65.2205 265.445 65.3409C265.562 65.4614 265.621 65.6128 265.621 65.795C265.621 65.9741 265.562 66.1238 265.445 66.2443C265.328 66.3615 265.162 66.42 264.947 66.42C264.732 66.42 264.566 66.3615 264.449 66.2443C264.335 66.1238 264.278 65.9741 264.278 65.795ZM267.935 67.1671L267.969 67.7775C268.36 67.3055 268.873 67.0695 269.507 67.0695C270.608 67.0695 271.167 67.6993 271.187 68.9591V72.4503H270V69.0275C270 68.6922 269.927 68.4448 269.781 68.2853C269.638 68.1225 269.402 68.0411 269.073 68.0411C268.594 68.0411 268.238 68.2576 268.003 68.6906V72.4503H266.817V67.1671H267.935ZM273.887 65.8829V67.1671H274.82V68.046H273.887V70.9952C273.887 71.1971 273.926 71.3435 274.004 71.4347C274.086 71.5226 274.229 71.5665 274.434 71.5665C274.571 71.5665 274.709 71.5503 274.849 71.5177V72.4357C274.579 72.5105 274.319 72.548 274.068 72.548C273.156 72.548 272.701 72.045 272.701 71.0392V68.046H271.832V67.1671H272.701V65.8829H273.887ZM278.692 71.0148C278.692 70.8032 278.604 70.642 278.428 70.5314C278.256 70.4207 277.968 70.323 277.564 70.2384C277.16 70.1538 276.823 70.0463 276.553 69.9161C275.961 69.6297 275.665 69.2146 275.665 68.671C275.665 68.2153 275.857 67.8344 276.241 67.5284C276.625 67.2225 277.113 67.0695 277.706 67.0695C278.337 67.0695 278.847 67.2257 279.234 67.5382C279.625 67.8507 279.82 68.256 279.82 68.754H278.633C278.633 68.5262 278.549 68.3374 278.379 68.1876C278.21 68.0346 277.986 67.9581 277.706 67.9581C277.445 67.9581 277.232 68.0184 277.066 68.1388C276.903 68.2592 276.822 68.4204 276.822 68.6222C276.822 68.8045 276.898 68.9461 277.051 69.047C277.204 69.1479 277.514 69.2504 277.979 69.3546C278.444 69.4555 278.809 69.5776 279.073 69.7208C279.34 69.8608 279.537 70.0301 279.664 70.2286C279.794 70.4272 279.859 70.6681 279.859 70.9513C279.859 71.4266 279.662 71.8123 279.268 72.1085C278.874 72.4015 278.358 72.548 277.72 72.548C277.287 72.548 276.902 72.4698 276.563 72.3136C276.224 72.1573 275.961 71.9425 275.772 71.6691C275.583 71.3956 275.489 71.101 275.489 70.7853H276.641C276.657 71.0652 276.763 71.2817 276.958 71.4347C277.154 71.5844 277.413 71.6593 277.735 71.6593C278.047 71.6593 278.285 71.6007 278.448 71.4835C278.611 71.3631 278.692 71.2068 278.692 71.0148Z" fill="#556677"/>
<path d="M273.617 140.355H149.851C143.548 140.355 138.439 145.429 138.439 151.688C138.439 157.946 143.548 163.02 149.851 163.02H273.617C279.919 163.02 285.028 157.946 285.028 151.688C285.028 145.429 279.919 140.355 273.617 140.355Z" stroke="#F2F2F2"/>
<path d="M230.939 148.486H151.022C149.17 148.486 147.668 149.978 147.668 151.817C147.668 153.657 149.17 155.148 151.022 155.148H230.939C232.791 155.148 234.293 153.657 234.293 151.817C234.293 149.978 232.791 148.486 230.939 148.486Z" fill="#96B4C1"/>
<path d="M284.15 139.919H260.45C253.906 139.919 248.6 145.188 248.6 151.687C248.6 158.187 253.906 163.456 260.45 163.456H284.15C290.695 163.456 296 158.187 296 151.687C296 145.188 290.695 139.919 284.15 139.919Z" fill="#6ABF6E"/>
<path d="M267.991 152.9C267.93 153.427 267.735 153.833 267.407 154.121C267.081 154.405 266.647 154.548 266.104 154.548C265.517 154.548 265.045 154.337 264.689 153.916C264.336 153.494 264.16 152.93 264.16 152.224V151.745C264.16 151.283 264.242 150.876 264.406 150.525C264.572 150.174 264.807 149.905 265.11 149.718C265.413 149.529 265.764 149.435 266.163 149.435C266.691 149.435 267.115 149.583 267.434 149.879C267.753 150.173 267.939 150.581 267.991 151.103H267.332C267.275 150.706 267.15 150.419 266.959 150.241C266.77 150.063 266.504 149.975 266.163 149.975C265.743 149.975 265.414 150.13 265.175 150.439C264.938 150.749 264.819 151.19 264.819 151.762V152.244C264.819 152.784 264.932 153.214 265.158 153.533C265.383 153.852 265.699 154.011 266.104 154.011C266.469 154.011 266.748 153.929 266.942 153.765C267.138 153.599 267.268 153.311 267.332 152.9H267.991ZM272.718 152.152C272.718 152.639 272.636 153.066 272.472 153.43C272.308 153.792 272.076 154.069 271.775 154.261C271.474 154.452 271.123 154.548 270.722 154.548C270.33 154.548 269.983 154.452 269.68 154.261C269.377 154.067 269.141 153.792 268.972 153.437C268.806 153.079 268.72 152.666 268.716 152.196V151.837C268.716 151.359 268.799 150.936 268.965 150.569C269.132 150.202 269.366 149.922 269.669 149.729C269.975 149.533 270.323 149.435 270.715 149.435C271.114 149.435 271.465 149.531 271.768 149.725C272.073 149.917 272.308 150.196 272.472 150.562C272.636 150.927 272.718 151.352 272.718 151.837V152.152ZM272.065 151.831C272.065 151.24 271.947 150.788 271.71 150.474C271.473 150.157 271.141 149.999 270.715 149.999C270.301 149.999 269.974 150.157 269.734 150.474C269.497 150.788 269.375 151.226 269.369 151.786V152.152C269.369 152.724 269.488 153.174 269.728 153.502C269.969 153.828 270.301 153.991 270.722 153.991C271.146 153.991 271.474 153.837 271.707 153.529C271.939 153.219 272.059 152.776 272.065 152.2V151.831ZM274.359 152.531V154.479H273.703V149.503H275.538C276.083 149.503 276.509 149.642 276.816 149.92C277.126 150.198 277.281 150.566 277.281 151.024C277.281 151.507 277.13 151.88 276.827 152.142C276.526 152.401 276.094 152.531 275.531 152.531H274.359ZM274.359 151.995H275.538C275.889 151.995 276.158 151.913 276.345 151.749C276.532 151.582 276.625 151.343 276.625 151.031C276.625 150.735 276.532 150.498 276.345 150.32C276.158 150.142 275.902 150.05 275.576 150.043H274.359V151.995ZM279.636 152.001L280.935 149.503H281.68L279.964 152.624V154.479H279.308V152.624L277.592 149.503H278.344L279.636 152.001Z" fill="white"/>
<path d="M154.078 189.878C156.843 189.878 159.547 190.673 161.846 192.164C164.145 193.654 165.937 195.772 166.996 198.249C168.054 200.727 168.331 203.454 167.791 206.085C167.252 208.715 165.92 211.132 163.965 213.028C162.009 214.925 159.518 216.216 156.806 216.739C154.093 217.263 151.282 216.994 148.727 215.968C146.172 214.941 143.989 213.203 142.452 210.973C140.916 208.743 140.096 206.121 140.096 203.439C140.096 199.842 141.569 196.393 144.191 193.85C146.813 191.307 150.37 189.878 154.078 189.878Z" fill="#3B5999"/>
<path d="M195.729 189.878C198.494 189.878 201.197 190.673 203.497 192.164C205.796 193.654 207.588 195.772 208.646 198.249C209.705 200.727 209.981 203.454 209.442 206.085C208.902 208.715 207.571 211.132 205.615 213.028C203.66 214.925 201.169 216.216 198.456 216.739C195.744 217.263 192.933 216.994 190.378 215.968C187.823 214.941 185.639 213.203 184.103 210.973C182.567 208.743 181.747 206.121 181.747 203.439C181.747 199.842 183.22 196.393 185.842 193.85C188.464 191.307 192.02 189.878 195.729 189.878Z" fill="#DD4B39"/>
<path d="M237.462 189.878C240.227 189.878 242.93 190.673 245.23 192.164C247.529 193.654 249.321 195.772 250.379 198.249C251.438 200.727 251.715 203.454 251.175 206.085C250.636 208.715 249.304 211.132 247.349 213.028C245.393 214.925 242.902 216.216 240.189 216.739C237.477 217.263 234.666 216.994 232.111 215.968C229.556 214.941 227.372 213.203 225.836 210.973C224.3 208.743 223.48 206.121 223.48 203.439C223.48 199.842 224.953 196.393 227.575 193.85C230.197 191.307 233.753 189.878 237.462 189.878Z" fill="#E4405F"/>
<path d="M279.113 189.878C281.878 189.878 284.582 190.673 286.881 192.164C289.18 193.654 290.972 195.772 292.031 198.249C293.089 200.727 293.366 203.454 292.826 206.085C292.287 208.715 290.955 211.132 289 213.028C287.044 214.925 284.553 216.216 281.841 216.739C279.128 217.263 276.317 216.994 273.762 215.968C271.207 214.941 269.024 213.203 267.487 210.973C265.951 208.743 265.131 206.121 265.131 203.439C265.131 199.842 266.604 196.393 269.226 193.85C271.848 191.307 275.405 189.878 279.113 189.878Z" fill="#FFA103"/>
<path d="M156 198.756V200.151H155.142C155.029 200.137 154.915 200.148 154.806 200.181C154.698 200.213 154.598 200.268 154.513 200.342C154.392 200.508 154.334 200.71 154.349 200.913V201.918H155.949L155.732 203.487H154.345V207.507H152.674V203.487H151.281V201.918H152.673V200.763C152.655 200.485 152.697 200.205 152.794 199.942C152.892 199.68 153.044 199.439 153.241 199.235C153.443 199.051 153.681 198.907 153.941 198.814C154.201 198.721 154.478 198.679 154.755 198.692C155.171 198.686 155.587 198.707 156 198.756Z" fill="white"/>
<path d="M197.928 202.845C197.97 203.069 197.992 203.296 197.994 203.523C198.008 204.242 197.835 204.953 197.491 205.589C197.166 206.18 196.673 206.669 196.071 206.998C195.431 207.344 194.707 207.519 193.974 207.506C193.233 207.51 192.504 207.32 191.866 206.955C191.23 206.6 190.703 206.088 190.337 205.473C189.966 204.855 189.774 204.153 189.779 203.439C189.774 202.725 189.966 202.022 190.337 201.405C190.703 200.789 191.23 200.278 191.865 199.923C192.503 199.558 193.232 199.367 193.973 199.37C195.013 199.35 196.019 199.731 196.77 200.429L195.634 201.49C195.413 201.286 195.153 201.127 194.868 201.022C194.583 200.917 194.279 200.869 193.974 200.879C193.517 200.877 193.068 200.994 192.675 201.218C192.278 201.441 191.949 201.763 191.724 202.15C191.492 202.544 191.371 202.99 191.375 203.443C191.371 203.896 191.492 204.343 191.724 204.736C191.95 205.122 192.278 205.442 192.674 205.663C193.068 205.888 193.517 206.005 193.973 206.003C194.439 206.013 194.899 205.903 195.306 205.684C195.615 205.512 195.871 205.264 196.049 204.964C196.196 204.753 196.3 204.516 196.354 204.267H193.973V202.848L197.928 202.845ZM201.973 202.993H203.196V204.18H201.969V205.366H200.746V204.18H199.544V202.993H200.746V201.811H201.969L201.973 202.993Z" fill="white"/>
<path d="M279.833 201.468C279.061 201.473 278.298 201.624 277.586 201.912C277.157 202.064 276.788 202.341 276.53 202.706C276.272 203.07 276.139 203.504 276.148 203.946C276.125 204.435 276.297 204.913 276.628 205.281C276.924 205.592 277.324 205.791 277.757 205.841C278.218 205.905 278.689 205.847 279.119 205.674C279.54 205.516 279.896 205.23 280.135 204.858C280.433 205.217 280.764 205.55 281.122 205.854L282.367 204.667L282.193 204.519C282.059 204.393 281.941 204.251 281.842 204.097C281.732 203.933 281.672 203.742 281.668 203.546V200.431C281.659 200.19 281.584 199.956 281.45 199.753C281.28 199.448 281.022 199.197 280.707 199.033C280.244 198.793 279.724 198.676 279.199 198.692C278.647 198.682 278.101 198.799 277.605 199.031C277.209 199.22 276.87 199.505 276.621 199.858C276.4 200.162 276.278 200.524 276.272 200.896L277.889 201.044C277.941 200.853 278.03 200.675 278.154 200.518C278.277 200.362 278.432 200.231 278.609 200.133C278.748 200.054 278.906 200.01 279.067 200.006C279.258 199.988 279.449 200.037 279.606 200.144C279.728 200.26 279.802 200.415 279.814 200.58C279.847 200.79 279.854 201.003 279.835 201.215L279.833 201.468ZM279.833 203.29C279.857 203.623 279.756 203.954 279.549 204.222C279.476 204.316 279.382 204.393 279.274 204.446C279.166 204.499 279.047 204.527 278.926 204.529C278.806 204.534 278.686 204.516 278.574 204.476C278.461 204.436 278.358 204.375 278.271 204.296C278.182 204.217 278.112 204.12 278.065 204.012C278.019 203.904 277.997 203.788 278.001 203.671C277.991 203.465 278.046 203.262 278.158 203.088C278.271 202.914 278.435 202.777 278.63 202.696C279.007 202.528 279.418 202.441 279.833 202.441V203.29ZM282.804 206.765C282.892 206.666 282.917 206.588 282.881 206.532C282.844 206.475 282.782 206.468 282.695 206.511C281.608 207.044 280.416 207.341 279.199 207.383C278.293 207.394 277.394 207.228 276.556 206.895C275.887 206.624 275.244 206.297 274.634 205.917L274.544 205.875C274.534 205.864 274.522 205.856 274.509 205.851C274.496 205.845 274.482 205.843 274.468 205.843C274.453 205.843 274.439 205.845 274.426 205.851C274.413 205.856 274.401 205.864 274.391 205.875C274.348 205.917 274.362 205.973 274.435 206.044C274.71 206.35 275.018 206.627 275.353 206.87C275.83 207.24 276.36 207.54 276.928 207.758C277.58 208.034 278.283 208.179 278.995 208.182C279.668 208.185 280.337 208.077 280.972 207.864C281.424 207.703 281.855 207.492 282.258 207.235C282.46 207.102 282.644 206.944 282.804 206.765ZM283.678 206.807C283.752 206.634 283.803 206.452 283.831 206.267C283.867 206.144 283.859 206.014 283.809 205.896C283.765 205.838 283.638 205.799 283.427 205.78C283.228 205.758 283.026 205.758 282.827 205.78C282.627 205.804 282.431 205.857 282.248 205.938C282.051 206.023 281.967 206.094 281.996 206.15C282.002 206.156 282.008 206.161 282.016 206.165C282.024 206.168 282.032 206.17 282.04 206.171L282.368 206.15C282.936 206.092 283.264 206.113 283.352 206.214C283.412 206.298 283.39 206.502 283.286 206.824C283.236 207.015 283.163 207.2 283.068 207.375C283.038 207.446 283.042 207.492 283.078 207.513C283.115 207.533 283.162 207.516 283.22 207.459C283.423 207.279 283.579 207.056 283.678 206.807Z" fill="white"/>
<path d="M237.472 201.002C237.914 200.999 238.349 201.112 238.73 201.33C239.111 201.544 239.427 201.851 239.648 202.22C239.873 202.59 239.99 203.012 239.987 203.441C239.99 203.87 239.873 204.292 239.648 204.661C239.426 205.029 239.109 205.335 238.728 205.547C238.347 205.765 237.912 205.878 237.47 205.876C237.028 205.878 236.593 205.765 236.212 205.547C235.832 205.332 235.518 205.026 235.298 204.657C235.074 204.287 234.957 203.865 234.96 203.436C234.957 203.007 235.074 202.586 235.298 202.216C235.519 201.848 235.836 201.542 236.216 201.329C236.597 201.112 237.03 200.999 237.472 201.002ZM237.472 205.027C237.687 205.03 237.901 204.991 238.1 204.91C238.3 204.83 238.48 204.711 238.629 204.561C238.784 204.416 238.907 204.241 238.99 204.048C239.072 203.855 239.113 203.647 239.11 203.438C239.113 203.229 239.072 203.022 238.99 202.828C238.907 202.635 238.784 202.461 238.629 202.315C238.479 202.166 238.299 202.047 238.1 201.968C237.901 201.888 237.687 201.849 237.472 201.852C237.256 201.849 237.042 201.889 236.843 201.969C236.644 202.05 236.464 202.168 236.314 202.319C236.159 202.464 236.037 202.639 235.954 202.832C235.871 203.025 235.83 203.233 235.833 203.442C235.83 203.651 235.871 203.858 235.954 204.051C236.037 204.244 236.159 204.419 236.314 204.564C236.464 204.714 236.644 204.832 236.844 204.912C237.043 204.992 237.256 205.031 237.472 205.027ZM240.683 200.893C240.671 201.044 240.605 201.187 240.497 201.296C240.446 201.351 240.384 201.394 240.314 201.423C240.244 201.452 240.169 201.467 240.093 201.465C240.015 201.466 239.938 201.452 239.867 201.422C239.796 201.393 239.731 201.35 239.677 201.296C239.621 201.245 239.576 201.182 239.545 201.113C239.515 201.044 239.499 200.969 239.5 200.893C239.499 200.818 239.514 200.744 239.544 200.675C239.574 200.605 239.618 200.543 239.674 200.491C239.728 200.437 239.792 200.394 239.863 200.364C239.935 200.335 240.012 200.321 240.089 200.322C240.167 200.321 240.243 200.335 240.315 200.364C240.386 200.394 240.451 200.437 240.504 200.491C240.561 200.542 240.606 200.605 240.637 200.674C240.668 200.743 240.684 200.818 240.683 200.893ZM242.343 201.465C242.358 201.861 242.365 202.518 242.365 203.435C242.365 204.353 242.354 205.014 242.333 205.417C242.319 205.772 242.256 206.124 242.147 206.463C242.02 206.81 241.815 207.125 241.546 207.384C241.278 207.645 240.954 207.844 240.596 207.967C240.246 208.073 239.884 208.134 239.517 208.147C239.102 208.168 238.421 208.179 237.474 208.179C236.528 208.179 235.846 208.17 235.43 208.153C235.061 208.141 234.696 208.074 234.348 207.955C233.989 207.844 233.663 207.65 233.397 207.39C233.13 207.131 232.925 206.818 232.797 206.473C232.687 206.134 232.625 205.782 232.611 205.427C232.589 205.02 232.579 204.357 232.579 203.438C232.579 202.519 232.589 201.859 232.611 201.457C232.625 201.101 232.687 200.75 232.797 200.411C232.924 200.064 233.129 199.749 233.397 199.489C233.665 199.229 233.99 199.03 234.347 198.907C234.697 198.8 235.06 198.74 235.426 198.726C235.841 198.705 236.522 198.695 237.469 198.695C238.416 198.695 239.097 198.705 239.512 198.726C239.878 198.74 240.241 198.8 240.591 198.907C240.948 199.03 241.273 199.229 241.541 199.489C241.809 199.749 242.014 200.064 242.141 200.411C242.254 200.753 242.322 201.109 242.344 201.468L242.343 201.465ZM241.297 206.236C241.406 205.863 241.465 205.479 241.472 205.092C241.486 204.781 241.493 204.343 241.493 203.778V203.1C241.493 202.519 241.486 202.081 241.472 201.786C241.467 201.399 241.409 201.014 241.297 200.642C241.218 200.433 241.094 200.243 240.931 200.085C240.769 199.928 240.573 199.807 240.358 199.731C239.975 199.622 239.578 199.565 239.179 199.561C238.858 199.548 238.407 199.541 237.824 199.541H237.123C236.541 199.541 236.089 199.548 235.769 199.561C235.37 199.568 234.973 199.625 234.589 199.731C234.374 199.807 234.178 199.928 234.016 200.085C233.854 200.243 233.729 200.433 233.65 200.642C233.539 201.014 233.481 201.399 233.477 201.786C233.463 202.097 233.456 202.535 233.456 203.1V203.778C233.456 204.343 233.463 204.781 233.477 205.092C233.484 205.479 233.543 205.864 233.652 206.236C233.735 206.442 233.861 206.63 234.022 206.786C234.183 206.943 234.376 207.066 234.588 207.147C234.972 207.252 235.369 207.309 235.768 207.316C236.088 207.33 236.54 207.337 237.122 207.337H237.821C238.421 207.337 238.872 207.33 239.176 207.316C239.575 207.312 239.972 207.255 240.355 207.147C240.569 207.066 240.762 206.944 240.925 206.787C241.087 206.63 241.214 206.442 241.297 206.236Z" fill="white"/>
</g>
<g filter="url(#filter1_d)">
<rect x="30" y="72" width="182" height="246" rx="5" fill="white"/>
<path d="M185.402 139.883H164.206C158.353 139.883 153.609 144.594 153.609 150.406C153.609 156.218 158.353 160.929 164.206 160.929H185.402C191.255 160.929 196 156.218 196 150.406C196 144.594 191.255 139.883 185.402 139.883Z" fill="#7FA1D8"/>
<path d="M163.762 150.974H162.936V152.618H162.195V148.352H163.695C164.187 148.352 164.567 148.462 164.834 148.683C165.102 148.904 165.236 149.223 165.236 149.641C165.236 149.926 165.166 150.165 165.028 150.359C164.891 150.55 164.699 150.698 164.453 150.801L165.411 152.58V152.618H164.617L163.762 150.974ZM162.936 150.379H163.698C163.948 150.379 164.143 150.317 164.283 150.192C164.424 150.065 164.494 149.892 164.494 149.673C164.494 149.445 164.429 149.268 164.298 149.143C164.169 149.018 163.976 148.954 163.718 148.95H162.936V150.379ZM168.432 150.713H166.68V152.026H168.728V152.618H165.939V148.352H168.707V148.95H166.68V150.127H168.432V150.713ZM169.331 152.618V148.352H170.591C170.968 148.352 171.302 148.436 171.593 148.604C171.886 148.772 172.113 149.01 172.273 149.319C172.433 149.627 172.513 149.981 172.513 150.379V150.593C172.513 150.997 172.432 151.353 172.27 151.66C172.11 151.966 171.88 152.203 171.581 152.369C171.284 152.535 170.944 152.618 170.559 152.618H169.331ZM170.073 148.95V152.026H170.556C170.945 152.026 171.242 151.905 171.449 151.663C171.658 151.418 171.765 151.069 171.769 150.614V150.376C171.769 149.914 171.668 149.56 171.467 149.316C171.266 149.072 170.974 148.95 170.591 148.95H170.073ZM175.744 150.713H173.992V152.026H176.04V152.618H173.251V148.352H176.02V148.95H173.992V150.127H175.744V150.713ZM179.137 150.713H177.385V152.026H179.433V152.618H176.644V148.352H179.412V148.95H177.385V150.127H179.137V150.713ZM180.997 148.352L182.228 151.622L183.455 148.352H184.413V152.618H183.675V151.211L183.748 149.331L182.489 152.618H181.958L180.701 149.333L180.775 151.211V152.618H180.036V148.352H180.997Z" fill="white"/>
<path d="M63.9348 163.454C71.1386 163.454 76.9783 157.424 76.9783 149.985C76.9783 142.546 71.1386 136.515 63.9348 136.515C56.7311 136.515 50.8914 142.546 50.8914 149.985C50.8914 157.424 56.7311 163.454 63.9348 163.454Z" fill="#D0E2F2"/>
<path d="M144.842 140.725H89.8204C87.6804 140.725 85.9456 142.421 85.9456 144.513C85.9456 146.605 87.6804 148.301 89.8204 148.301H144.842C146.982 148.301 148.717 146.605 148.717 144.513C148.717 142.421 146.982 140.725 144.842 140.725Z" fill="#D0E2F2"/>
<path d="M122.728 153.352H88.2934C86.9967 153.352 85.9456 154.295 85.9456 155.457C85.9456 156.619 86.9967 157.562 88.2934 157.562H122.728C124.025 157.562 125.076 156.619 125.076 155.457C125.076 154.295 124.025 153.352 122.728 153.352Z" fill="#96B4C1"/>
<path d="M185.402 181.975H164.206C158.353 181.975 153.609 186.686 153.609 192.498C153.609 198.31 158.353 203.021 164.206 203.021H185.402C191.255 203.021 196 198.31 196 192.498C196 186.686 191.255 181.975 185.402 181.975Z" fill="#7FA1D8"/>
<path d="M163.762 193.066H162.936V194.71H162.195V190.444H163.695C164.187 190.444 164.567 190.554 164.834 190.775C165.102 190.996 165.236 191.315 165.236 191.733C165.236 192.018 165.166 192.257 165.028 192.451C164.891 192.642 164.699 192.79 164.453 192.893L165.411 194.672V194.71H164.617L163.762 193.066ZM162.936 192.471H163.698C163.948 192.471 164.143 192.409 164.283 192.284C164.424 192.157 164.494 191.984 164.494 191.765C164.494 191.537 164.429 191.36 164.298 191.235C164.169 191.11 163.976 191.046 163.718 191.042H162.936V192.471ZM168.432 192.805H166.68V194.118H168.728V194.71H165.939V190.444H168.707V191.042H166.68V192.219H168.432V192.805ZM169.331 194.71V190.444H170.591C170.968 190.444 171.302 190.528 171.593 190.696C171.886 190.864 172.113 191.102 172.273 191.411C172.433 191.719 172.513 192.073 172.513 192.471V192.685C172.513 193.089 172.432 193.445 172.27 193.752C172.11 194.058 171.88 194.295 171.581 194.461C171.284 194.627 170.944 194.71 170.559 194.71H169.331ZM170.073 191.042V194.118H170.556C170.945 194.118 171.242 193.997 171.449 193.755C171.658 193.51 171.765 193.161 171.769 192.706V192.468C171.769 192.005 171.668 191.652 171.467 191.408C171.266 191.164 170.974 191.042 170.591 191.042H170.073ZM175.744 192.805H173.992V194.118H176.04V194.71H173.251V190.444H176.02V191.042H173.992V192.219H175.744V192.805ZM179.137 192.805H177.385V194.118H179.433V194.71H176.644V190.444H179.412V191.042H177.385V192.219H179.137V192.805ZM180.997 190.444L182.228 193.714L183.455 190.444H184.413V194.71H183.675V193.303L183.748 191.422L182.489 194.71H181.958L180.701 191.425L180.775 193.303V194.71H180.036V190.444H180.997Z" fill="white"/>
<path d="M63.9348 204.705C71.1386 204.705 76.9783 198.863 76.9783 191.656C76.9783 184.45 71.1386 178.608 63.9348 178.608C56.7311 178.608 50.8914 184.45 50.8914 191.656C50.8914 198.863 56.7311 204.705 63.9348 204.705Z" fill="#D0E2F2"/>
<path d="M135.851 182.817H89.8444C87.6911 182.817 85.9456 184.513 85.9456 186.605C85.9456 188.697 87.6911 190.393 89.8444 190.393H135.851C138.004 190.393 139.75 188.697 139.75 186.605C139.75 184.513 138.004 182.817 135.851 182.817Z" fill="#D0E2F2"/>
<path d="M122.728 194.603H88.2934C86.9967 194.603 85.9456 195.733 85.9456 197.128C85.9456 198.523 86.9967 199.654 88.2934 199.654H122.728C124.025 199.654 125.076 198.523 125.076 197.128C125.076 195.733 124.025 194.603 122.728 194.603Z" fill="#96B4C1"/>
<path d="M185.402 224.067H164.206C158.353 224.067 153.609 228.59 153.609 234.169C153.609 239.748 158.353 244.271 164.206 244.271H185.402C191.255 244.271 196 239.748 196 234.169C196 228.59 191.255 224.067 185.402 224.067Z" fill="#7FA1D8"/>
<path d="M170.341 235.413C170.298 235.868 170.13 236.224 169.837 236.479C169.544 236.733 169.154 236.86 168.668 236.86C168.328 236.86 168.028 236.78 167.769 236.62C167.511 236.458 167.312 236.229 167.171 235.932C167.03 235.635 166.957 235.29 166.951 234.897V234.499C166.951 234.097 167.022 233.742 167.165 233.436C167.308 233.129 167.512 232.893 167.777 232.727C168.045 232.561 168.354 232.478 168.703 232.478C169.174 232.478 169.553 232.605 169.84 232.861C170.127 233.117 170.294 233.479 170.341 233.945H169.603C169.567 233.639 169.478 233.418 169.333 233.283C169.19 233.146 168.98 233.078 168.703 233.078C168.381 233.078 168.133 233.196 167.959 233.433C167.787 233.667 167.699 234.012 167.695 234.467V234.845C167.695 235.306 167.777 235.657 167.941 235.899C168.107 236.142 168.35 236.263 168.668 236.263C168.959 236.263 169.178 236.197 169.324 236.066C169.471 235.936 169.563 235.718 169.603 235.413H170.341ZM174.41 234.78C174.41 235.198 174.338 235.565 174.193 235.882C174.049 236.196 173.842 236.438 173.572 236.608C173.305 236.776 172.996 236.86 172.646 236.86C172.301 236.86 171.992 236.776 171.721 236.608C171.451 236.438 171.242 236.197 171.094 235.885C170.947 235.572 170.873 235.212 170.871 234.804V234.563C170.871 234.147 170.944 233.78 171.091 233.462C171.239 233.144 171.447 232.9 171.715 232.732C171.984 232.562 172.293 232.478 172.641 232.478C172.988 232.478 173.296 232.562 173.563 232.729C173.833 232.896 174.041 233.136 174.188 233.45C174.334 233.763 174.408 234.127 174.41 234.543V234.78ZM173.669 234.558C173.669 234.085 173.579 233.723 173.399 233.471C173.222 233.219 172.969 233.093 172.641 233.093C172.32 233.093 172.069 233.219 171.888 233.471C171.708 233.721 171.616 234.075 171.612 234.534V234.78C171.612 235.249 171.703 235.611 171.885 235.867C172.068 236.123 172.322 236.251 172.646 236.251C172.975 236.251 173.227 236.126 173.402 235.876C173.58 235.626 173.669 235.261 173.669 234.78V234.558ZM175.89 235.217V236.802H175.148V232.536H176.78C177.257 232.536 177.635 232.66 177.914 232.908C178.195 233.156 178.336 233.484 178.336 233.893C178.336 234.311 178.198 234.636 177.923 234.868C177.649 235.101 177.266 235.217 176.771 235.217H175.89ZM175.89 234.622H176.78C177.044 234.622 177.245 234.561 177.384 234.438C177.522 234.312 177.592 234.133 177.592 233.898C177.592 233.668 177.521 233.484 177.381 233.348C177.24 233.209 177.047 233.138 176.801 233.134H175.89V234.622ZM180.378 234.558L181.359 232.536H182.18L180.75 235.231V236.802H180.006V235.231L178.573 232.536H179.396L180.378 234.558Z" fill="white"/>
<path d="M63.9348 246.797C71.1386 246.797 76.9783 240.955 76.9783 233.748C76.9783 226.542 71.1386 220.7 63.9348 220.7C56.7311 220.7 50.8914 226.542 50.8914 233.748C50.8914 240.955 56.7311 246.797 63.9348 246.797Z" fill="#D0E2F2"/>
<path d="M112.242 224.067H89.8126C87.6769 224.067 85.9456 225.952 85.9456 228.276C85.9456 230.601 87.6769 232.485 89.8126 232.485H112.242C114.377 232.485 116.109 230.601 116.109 228.276C116.109 225.952 114.377 224.067 112.242 224.067Z" fill="#D0E2F2"/>
<path d="M122.728 236.695H88.2934C86.9967 236.695 85.9456 237.825 85.9456 239.22C85.9456 240.615 86.9967 241.746 88.2934 241.746H122.728C124.025 241.746 125.076 240.615 125.076 239.22C125.076 237.825 124.025 236.695 122.728 236.695Z" fill="#96B4C1"/>
<path d="M70.7568 106.699H69.4209V109H68.667V103.312H70.5498C71.1904 103.312 71.6826 103.458 72.0264 103.75C72.3727 104.042 72.5459 104.466 72.5459 105.023C72.5459 105.378 72.4495 105.686 72.2568 105.949C72.0667 106.212 71.8011 106.409 71.46 106.539L72.7959 108.953V109H71.9912L70.7568 106.699ZM69.4209 106.086H70.5732C70.9456 106.086 71.2412 105.99 71.46 105.797C71.6813 105.604 71.792 105.346 71.792 105.023C71.792 104.672 71.6865 104.402 71.4756 104.215C71.2673 104.027 70.9652 103.932 70.5693 103.93H69.4209V106.086ZM76.8154 106.371H74.3506V108.387H77.2139V109H73.6006V103.312H77.1748V103.93H74.3506V105.758H76.8154V106.371ZM79.374 107.207L79.4834 107.957L79.6436 107.281L80.7686 103.312H81.4014L82.499 107.281L82.6553 107.969L82.7764 107.203L83.6592 103.312H84.4131L83.0342 109H82.3506L81.1787 104.855L81.0889 104.422L80.999 104.855L79.7842 109H79.1006L77.7256 103.312H78.4756L79.374 107.207ZM88.2178 107.516H85.835L85.2998 109H84.5264L86.6982 103.312H87.3545L89.5303 109H88.7607L88.2178 107.516ZM86.0615 106.898H87.9951L87.0264 104.238L86.0615 106.898ZM92.3818 106.699H91.0459V109H90.292V103.312H92.1748C92.8154 103.312 93.3076 103.458 93.6514 103.75C93.9977 104.042 94.1709 104.466 94.1709 105.023C94.1709 105.378 94.0745 105.686 93.8818 105.949C93.6917 106.212 93.4261 106.409 93.085 106.539L94.4209 108.953V109H93.6162L92.3818 106.699ZM91.0459 106.086H92.1982C92.5706 106.086 92.8662 105.99 93.085 105.797C93.3063 105.604 93.417 105.346 93.417 105.023C93.417 104.672 93.3115 104.402 93.1006 104.215C92.8923 104.027 92.5902 103.932 92.1943 103.93H91.0459V106.086ZM95.2256 109V103.312H96.8311C97.3258 103.312 97.7633 103.422 98.1436 103.641C98.5238 103.859 98.8167 104.171 99.0225 104.574C99.2308 104.978 99.3363 105.441 99.3389 105.965V106.328C99.3389 106.865 99.2347 107.335 99.0264 107.738C98.8206 108.142 98.5251 108.452 98.1396 108.668C97.7568 108.884 97.3102 108.995 96.7998 109H95.2256ZM95.9756 103.93V108.387H96.7646C97.3428 108.387 97.792 108.207 98.1123 107.848C98.4352 107.488 98.5967 106.977 98.5967 106.312V105.98C98.5967 105.335 98.4443 104.833 98.1396 104.477C97.8376 104.117 97.4079 103.935 96.8506 103.93H95.9756ZM102.151 106.465C101.508 106.28 101.039 106.053 100.745 105.785C100.453 105.514 100.308 105.181 100.308 104.785C100.308 104.337 100.486 103.967 100.843 103.676C101.202 103.382 101.668 103.234 102.241 103.234C102.632 103.234 102.979 103.31 103.284 103.461C103.591 103.612 103.828 103.82 103.995 104.086C104.164 104.352 104.249 104.642 104.249 104.957H103.495C103.495 104.613 103.386 104.344 103.167 104.148C102.948 103.951 102.64 103.852 102.241 103.852C101.871 103.852 101.582 103.934 101.374 104.098C101.168 104.259 101.065 104.484 101.065 104.773C101.065 105.005 101.163 105.202 101.358 105.363C101.556 105.522 101.891 105.668 102.362 105.801C102.836 105.934 103.206 106.081 103.472 106.242C103.74 106.401 103.938 106.587 104.065 106.801C104.196 107.014 104.261 107.266 104.261 107.555C104.261 108.016 104.081 108.385 103.722 108.664C103.362 108.94 102.882 109.078 102.28 109.078C101.89 109.078 101.525 109.004 101.187 108.855C100.848 108.704 100.586 108.499 100.401 108.238C100.219 107.978 100.128 107.682 100.128 107.352H100.882C100.882 107.695 101.008 107.967 101.261 108.168C101.516 108.366 101.856 108.465 102.28 108.465C102.676 108.465 102.979 108.384 103.19 108.223C103.401 108.061 103.507 107.841 103.507 107.562C103.507 107.284 103.409 107.069 103.214 106.918C103.019 106.764 102.664 106.613 102.151 106.465Z" fill="#556677"/>
<path d="M100.782 283.988V286.493H99.9387V280.095H102.299C102.999 280.095 103.547 280.274 103.942 280.631C104.341 280.988 104.54 281.462 104.54 282.05C104.54 282.672 104.345 283.151 103.955 283.487C103.569 283.821 103.013 283.988 102.29 283.988H100.782ZM100.782 283.298H102.299C102.75 283.298 103.095 283.193 103.336 282.982C103.576 282.768 103.696 282.461 103.696 282.059C103.696 281.678 103.576 281.374 103.336 281.145C103.095 280.917 102.766 280.798 102.347 280.789H100.782V283.298ZM110.538 283.501C110.538 284.128 110.433 284.675 110.222 285.144C110.011 285.61 109.712 285.966 109.325 286.212C108.939 286.458 108.488 286.581 107.972 286.581C107.468 286.581 107.021 286.458 106.632 286.212C106.242 285.963 105.939 285.61 105.722 285.153C105.508 284.693 105.398 284.161 105.392 283.558V283.096C105.392 282.481 105.499 281.938 105.713 281.466C105.927 280.994 106.229 280.634 106.618 280.385C107.011 280.133 107.459 280.007 107.963 280.007C108.476 280.007 108.927 280.131 109.317 280.38C109.709 280.627 110.011 280.985 110.222 281.457C110.433 281.926 110.538 282.472 110.538 283.096V283.501ZM109.699 283.088C109.699 282.329 109.547 281.747 109.242 281.343C108.937 280.936 108.511 280.732 107.963 280.732C107.43 280.732 107.01 280.936 106.702 281.343C106.397 281.747 106.24 282.31 106.232 283.03V283.501C106.232 284.236 106.385 284.815 106.693 285.236C107.004 285.655 107.43 285.865 107.972 285.865C108.517 285.865 108.939 285.667 109.238 285.272C109.536 284.873 109.69 284.303 109.699 283.562V283.088ZM112.709 286.493H111.865V280.095H112.709V286.493ZM119.174 286.493H118.325L115.104 281.563V286.493H114.256V280.095H115.104L118.334 285.047V280.095H119.174V286.493ZM124.961 280.789H122.905V286.493H122.065V280.789H120.013V280.095H124.961V280.789ZM127.725 283.641C127.002 283.433 126.474 283.178 126.143 282.877C125.815 282.572 125.651 282.197 125.651 281.752C125.651 281.248 125.852 280.832 126.253 280.504C126.657 280.172 127.182 280.007 127.826 280.007C128.266 280.007 128.657 280.092 129 280.262C129.345 280.432 129.612 280.666 129.8 280.965C129.99 281.264 130.085 281.59 130.085 281.945H129.237C129.237 281.558 129.114 281.255 128.868 281.035C128.622 280.813 128.275 280.701 127.826 280.701C127.41 280.701 127.085 280.794 126.851 280.978C126.619 281.16 126.504 281.413 126.504 281.738C126.504 281.999 126.614 282.22 126.833 282.402C127.056 282.581 127.432 282.745 127.963 282.894C128.496 283.044 128.912 283.209 129.211 283.391C129.512 283.569 129.735 283.779 129.879 284.019C130.025 284.259 130.098 284.542 130.098 284.867C130.098 285.386 129.896 285.802 129.492 286.115C129.088 286.426 128.547 286.581 127.87 286.581C127.431 286.581 127.021 286.498 126.64 286.331C126.259 286.161 125.965 285.929 125.757 285.636C125.552 285.343 125.449 285.011 125.449 284.639H126.297C126.297 285.026 126.439 285.332 126.723 285.557C127.01 285.78 127.393 285.891 127.87 285.891C128.316 285.891 128.657 285.8 128.894 285.619C129.132 285.437 129.25 285.19 129.25 284.876C129.25 284.563 129.14 284.321 128.921 284.151C128.701 283.978 128.302 283.808 127.725 283.641Z" fill="#556677"/>
<path d="M140.364 106.371H137.899V108.387H140.763V109H137.149V103.312H140.724V103.93H137.899V105.758H140.364V106.371ZM144.837 107.516H142.454L141.919 109H141.146L143.317 103.312H143.974L146.149 109H145.38L144.837 107.516ZM142.681 106.898H144.614L143.646 104.238L142.681 106.898ZM149.001 106.699H147.665V109H146.911V103.312H148.794C149.435 103.312 149.927 103.458 150.271 103.75C150.617 104.042 150.79 104.466 150.79 105.023C150.79 105.378 150.694 105.686 150.501 105.949C150.311 106.212 150.045 106.409 149.704 106.539L151.04 108.953V109H150.235L149.001 106.699ZM147.665 106.086H148.817C149.19 106.086 149.485 105.99 149.704 105.797C149.925 105.604 150.036 105.346 150.036 105.023C150.036 104.672 149.931 104.402 149.72 104.215C149.511 104.027 149.209 103.932 148.813 103.93H147.665V106.086ZM156.216 109H155.462L152.599 104.617V109H151.845V103.312H152.599L155.47 107.715V103.312H156.216V109ZM160.282 106.773V109H159.532V103.312H161.63C162.252 103.312 162.739 103.471 163.091 103.789C163.445 104.107 163.622 104.527 163.622 105.051C163.622 105.603 163.449 106.029 163.103 106.328C162.759 106.625 162.265 106.773 161.622 106.773H160.282ZM160.282 106.16H161.63C162.031 106.16 162.338 106.066 162.552 105.879C162.765 105.689 162.872 105.415 162.872 105.059C162.872 104.72 162.765 104.449 162.552 104.246C162.338 104.043 162.045 103.938 161.673 103.93H160.282V106.16ZM168.954 106.34C168.954 106.897 168.86 107.384 168.673 107.801C168.485 108.215 168.22 108.531 167.876 108.75C167.532 108.969 167.131 109.078 166.673 109.078C166.225 109.078 165.828 108.969 165.481 108.75C165.135 108.529 164.866 108.215 164.673 107.809C164.483 107.4 164.385 106.927 164.38 106.391V105.98C164.38 105.434 164.475 104.951 164.665 104.531C164.855 104.112 165.123 103.792 165.47 103.57C165.819 103.346 166.217 103.234 166.665 103.234C167.121 103.234 167.522 103.345 167.868 103.566C168.217 103.785 168.485 104.104 168.673 104.523C168.86 104.94 168.954 105.426 168.954 105.98V106.34ZM168.208 105.973C168.208 105.298 168.073 104.781 167.802 104.422C167.531 104.06 167.152 103.879 166.665 103.879C166.191 103.879 165.817 104.06 165.544 104.422C165.273 104.781 165.134 105.281 165.126 105.922V106.34C165.126 106.993 165.263 107.508 165.536 107.883C165.812 108.255 166.191 108.441 166.673 108.441C167.157 108.441 167.532 108.266 167.798 107.914C168.063 107.56 168.2 107.053 168.208 106.395V105.973ZM170.884 109H170.134V103.312H170.884V109ZM176.63 109H175.876L173.013 104.617V109H172.259V103.312H173.013L175.884 107.715V103.312H176.63V109ZM181.774 103.93H179.946V109H179.2V103.93H177.376V103.312H181.774V103.93ZM184.231 106.465C183.588 106.28 183.119 106.053 182.825 105.785C182.534 105.514 182.388 105.181 182.388 104.785C182.388 104.337 182.566 103.967 182.923 103.676C183.282 103.382 183.748 103.234 184.321 103.234C184.712 103.234 185.06 103.31 185.364 103.461C185.672 103.612 185.909 103.82 186.075 104.086C186.244 104.352 186.329 104.642 186.329 104.957H185.575C185.575 104.613 185.466 104.344 185.247 104.148C185.028 103.951 184.72 103.852 184.321 103.852C183.951 103.852 183.662 103.934 183.454 104.098C183.248 104.259 183.146 104.484 183.146 104.773C183.146 105.005 183.243 105.202 183.438 105.363C183.636 105.522 183.971 105.668 184.442 105.801C184.916 105.934 185.286 106.081 185.552 106.242C185.82 106.401 186.018 106.587 186.146 106.801C186.276 107.014 186.341 107.266 186.341 107.555C186.341 108.016 186.161 108.385 185.802 108.664C185.442 108.94 184.962 109.078 184.36 109.078C183.97 109.078 183.605 109.004 183.267 108.855C182.928 108.704 182.666 108.499 182.481 108.238C182.299 107.978 182.208 107.682 182.208 107.352H182.962C182.962 107.695 183.088 107.967 183.341 108.168C183.596 108.366 183.936 108.465 184.36 108.465C184.756 108.465 185.06 108.384 185.271 108.223C185.481 108.061 185.587 107.841 185.587 107.562C185.587 107.284 185.489 107.069 185.294 106.918C185.099 106.764 184.744 106.613 184.231 106.465Z" fill="#556677"/>
<path d="M124.629 122.204H47.2628C46.5654 122.204 46 122.77 46 123.467C46 124.164 46.5654 124.73 47.2628 124.73H124.629C125.326 124.73 125.891 124.164 125.891 123.467C125.891 122.77 125.326 122.204 124.629 122.204Z" fill="#D0E2F2"/>
<path d="M60.6758 276.334L55.376 288.217H53.6709L58.9531 276.756H52.0273V275.42H60.6758V276.334ZM63.2686 281.801L63.9189 275.42H70.4756V276.923H65.2988L64.9121 280.412C65.5391 280.043 66.251 279.859 67.0479 279.859C68.2139 279.859 69.1396 280.245 69.8252 281.019C70.5107 281.786 70.8535 282.826 70.8535 284.139C70.8535 285.457 70.4961 286.497 69.7812 287.259C69.0723 288.015 68.0791 288.393 66.8018 288.393C65.6709 288.393 64.748 288.079 64.0332 287.452C63.3184 286.825 62.9111 285.958 62.8115 284.851H64.3496C64.4492 285.583 64.71 286.137 65.1318 286.512C65.5537 286.881 66.1104 287.066 66.8018 287.066C67.5576 287.066 68.1494 286.808 68.5771 286.292C69.0107 285.776 69.2275 285.065 69.2275 284.156C69.2275 283.301 68.9932 282.615 68.5244 282.1C68.0615 281.578 67.4434 281.318 66.6699 281.318C65.9609 281.318 65.4043 281.473 65 281.783L64.5693 282.135L63.2686 281.801ZM80.6533 282.759C80.6533 284.663 80.3281 286.078 79.6777 287.004C79.0273 287.93 78.0107 288.393 76.6279 288.393C75.2627 288.393 74.252 287.942 73.5957 287.039C72.9395 286.131 72.5996 284.777 72.5762 282.979V280.808C72.5762 278.927 72.9014 277.529 73.5518 276.615C74.2021 275.701 75.2217 275.244 76.6104 275.244C77.9873 275.244 79.001 275.687 79.6514 276.571C80.3018 277.45 80.6357 278.81 80.6533 280.65V282.759ZM79.0273 280.535C79.0273 279.158 78.834 278.156 78.4473 277.529C78.0605 276.897 77.4482 276.58 76.6104 276.58C75.7783 276.58 75.1719 276.894 74.791 277.521C74.4102 278.148 74.2139 279.111 74.2021 280.412V283.014C74.2021 284.397 74.4014 285.419 74.7998 286.081C75.2041 286.737 75.8135 287.066 76.6279 287.066C77.4307 287.066 78.0254 286.755 78.4121 286.134C78.8047 285.513 79.0098 284.534 79.0273 283.198V280.535Z" fill="#556677"/>
</g>
<defs>
<filter id="filter0_d" x="106" y="0" width="222" height="286" filterUnits="userSpaceOnUse" color-interpolation-filters="sRGB">
<feFlood flood-opacity="0" result="BackgroundImageFix"/>
<feColorMatrix in="SourceAlpha" type="matrix" values="0 0 0 0 0 0 0 0 0 0 0 0 0 0 0 0 0 0 127 0"/>
<feOffset dy="4"/>
<feGaussianBlur stdDeviation="10"/>
<feColorMatrix type="matrix" values="0 0 0 0 0 0 0 0 0 0 0 0 0 0 0 0 0 0 0.05 0"/>
<feBlend mode="normal" in2="BackgroundImageFix" result="effect1_dropShadow"/>
<feBlend mode="normal" in="SourceGraphic" in2="effect1_dropShadow" result="shape"/>
</filter>
<filter id="filter1_d" x="0" y="46" width="242" height="306" filterUnits="userSpaceOnUse" color-interpolation-filters="sRGB">
<feFlood flood-opacity="0" result="BackgroundImageFix"/>
<feColorMatrix in="SourceAlpha" type="matrix" values="0 0 0 0 0 0 0 0 0 0 0 0 0 0 0 0 0 0 127 0"/>
<feOffset dy="4"/>
<feGaussianBlur stdDeviation="15"/>
<feColorMatrix type="matrix" values="0 0 0 0 0 0 0 0 0 0 0 0 0 0 0 0 0 0 0.05 0"/>
<feBlend mode="normal" in2="BackgroundImageFix" result="effect1_dropShadow"/>
<feBlend mode="normal" in="SourceGraphic" in2="effect1_dropShadow" result="shape"/>
</filter>
</defs>
</svg>
