<svg width="43" height="43" viewBox="0 0 43 43" fill="none" xmlns="http://www.w3.org/2000/svg">
<path d="M22.7865 42H20.2134C18.1322 42 16.439 40.3068 16.439 38.2257V37.3552C15.5542 37.0725 14.6946 36.7156 13.8687 36.2883L13.2518 36.9052C11.7576 38.4012 9.36416 38.3573 7.91339 36.9046L6.09473 35.0861C4.64139 33.6343 4.59959 31.2417 6.09521 29.7476L6.71165 29.1312C6.28428 28.3054 5.92753 27.4459 5.64477 26.5609H4.77432C2.69325 26.5609 1 24.8678 1 22.7866V20.2134C1 18.1322 2.69325 16.4391 4.7744 16.4391H5.64485C5.92761 15.5542 6.28436 14.6946 6.71173 13.8688L6.09481 13.252C4.60007 11.7588 4.64131 9.36592 6.09529 7.91354L7.91411 6.09481C9.36824 4.63867 11.7611 4.60231 13.2524 6.09529L13.8688 6.71165C14.6946 6.28436 15.5543 5.92753 16.4391 5.64477V4.77432C16.4391 2.69317 18.1322 1 20.2135 1H22.7866C24.8678 1 26.5609 2.69317 26.5609 4.77432V5.64485C27.4457 5.92753 28.3054 6.28436 29.1312 6.71173L29.7481 6.09481C31.2423 4.59879 33.6358 4.64267 35.0865 6.09537L36.9052 7.91395C38.3585 9.36568 38.4003 11.7583 36.9047 13.2524L36.2883 13.8688C36.7156 14.6946 37.0724 15.5541 37.3552 16.4391H38.2256C40.3067 16.4391 42 18.1322 42 20.2134V22.7866C42 24.8678 40.3067 26.5609 38.2256 26.5609H37.3552C37.0724 27.4458 36.7156 28.3054 36.2883 29.1312L36.9052 29.7481C38.3999 31.2413 38.3587 33.6342 36.9047 35.0865L35.0859 36.9053C33.6318 38.3614 31.2389 38.3978 29.7476 36.9048L29.1312 36.2884C28.3054 36.7157 27.4457 37.0726 26.5609 37.3553V38.2258C26.5609 40.3068 24.8678 42 22.7865 42ZM14.2703 33.7656C15.4176 34.4441 16.6524 34.9567 17.9404 35.2891C18.4708 35.4259 18.8414 35.9043 18.8414 36.4521V38.2257C18.8414 38.9822 19.457 39.5977 20.2135 39.5977H22.7866C23.5431 39.5977 24.1587 38.9822 24.1587 38.2257V36.4521C24.1587 35.9043 24.5293 35.4259 25.0597 35.2891C26.3477 34.9567 27.5825 34.4441 28.7298 33.7656C29.2018 33.4864 29.8028 33.5623 30.1906 33.9501L31.4469 35.2065C31.9886 35.7488 32.8584 35.7362 33.3867 35.2071L35.2067 33.3872C35.7337 32.8608 35.7513 31.9908 35.2071 31.4473L33.9503 30.1905C33.5626 29.8027 33.4867 29.2017 33.7657 28.7297C34.4442 27.5825 34.9567 26.3477 35.2891 25.0596C35.4261 24.5292 35.9045 24.1587 36.4522 24.1587H38.2257C38.9822 24.1587 39.5977 23.5432 39.5977 22.7867V20.2135C39.5977 19.457 38.9822 18.8415 38.2257 18.8415H36.4522C35.9044 18.8415 35.4261 18.4709 35.2891 17.9405C34.9567 16.6525 34.4441 15.4177 33.7657 14.2705C33.4867 13.7985 33.5626 13.1974 33.9503 12.8097L35.2067 11.5533C35.7497 11.0109 35.7356 10.1412 35.2071 9.61344L33.3874 7.79367C32.8599 7.26547 31.9899 7.25002 31.4475 7.79319L30.1907 9.05001C29.803 9.43783 29.2018 9.51375 28.7299 9.23459C27.5826 8.55609 26.3478 8.04351 25.0598 7.71111C24.5294 7.57425 24.1588 7.09587 24.1588 6.54805V4.77432C24.1588 4.01782 23.5432 3.40234 22.7867 3.40234H20.2135C19.457 3.40234 18.8415 4.01782 18.8415 4.77432V6.54789C18.8415 7.09571 18.4709 7.57409 17.9404 7.71095C16.6525 8.04335 15.4177 8.55593 14.2704 9.23443C13.7982 9.51351 13.1973 9.43759 12.8095 9.04985L11.5533 7.79351C11.0116 7.25122 10.1417 7.26379 9.61344 7.79295L7.79351 9.6128C7.26643 10.1392 7.24882 11.0091 7.79303 11.5527L9.04985 12.8095C9.43759 13.1973 9.51351 13.7983 9.23443 14.2703C8.55593 15.4175 8.04343 16.6523 7.71103 17.9404C7.57409 18.4708 7.09571 18.8413 6.54797 18.8413H4.7744C4.0179 18.8414 3.40234 19.4569 3.40234 20.2134V22.7866C3.40234 23.5431 4.0179 24.1586 4.7744 24.1586H6.54789C7.09571 24.1586 7.57401 24.5292 7.71095 25.0596C8.04335 26.3476 8.55593 27.5824 9.23435 28.7296C9.51343 29.2016 9.43751 29.8027 9.04977 30.1904L7.79343 31.4467C7.25034 31.9892 7.26451 32.8588 7.79295 33.3866L9.61272 35.2064C10.1402 35.7346 11.0102 35.7501 11.5526 35.2069L12.8094 33.9501C13.0951 33.6644 13.6895 33.422 14.2703 33.7656Z" fill="#0099FF" stroke="#0099FF" stroke-width="0.2"/>
<path d="M21.5 30.4207C16.5811 30.4207 12.5793 26.4189 12.5793 21.5C12.5793 16.5812 16.5811 12.5793 21.5 12.5793C26.419 12.5793 30.4207 16.5812 30.4207 21.5C30.4207 26.4189 26.419 30.4207 21.5 30.4207V30.4207ZM21.5 14.9817C17.9057 14.9817 14.9817 17.9058 14.9817 21.5C14.9817 25.0943 17.9058 28.0184 21.5 28.0184C25.0943 28.0184 28.0184 25.0943 28.0184 21.5C28.0184 17.9058 25.0943 14.9817 21.5 14.9817V14.9817Z" fill="#0099FF"/>
<path fill-rule="evenodd" clip-rule="evenodd" d="M21.4998 12.737C16.6679 12.737 12.7368 16.6682 12.7368 21.5C12.7368 26.3318 16.6679 30.263 21.4998 30.263C26.3316 30.263 30.2628 26.3318 30.2628 21.5C30.2628 16.6682 26.3316 12.737 21.4998 12.737ZM12.4214 21.5C12.4214 16.4941 16.4937 12.4216 21.4998 12.4216C26.5058 12.4216 30.5782 16.4941 30.5782 21.5C30.5782 26.506 26.5058 30.5784 21.4998 30.5784C16.4937 30.5784 12.4214 26.506 12.4214 21.5ZM14.8237 21.5C14.8237 17.8187 17.8184 14.824 21.4998 14.824C25.1812 14.824 28.1758 17.8187 28.1758 21.5C28.1758 25.1813 25.1811 28.1761 21.4998 28.1761C17.8185 28.1761 14.8237 25.1813 14.8237 21.5ZM21.4998 15.1394C17.9926 15.1394 15.1391 17.9929 15.1391 21.5C15.1391 25.0072 17.9926 27.8607 21.4998 27.8607C25.0069 27.8607 27.8604 25.0072 27.8604 21.5C27.8604 17.9929 25.007 15.1394 21.4998 15.1394Z" fill="#0099FF"/>
<path fill-rule="evenodd" clip-rule="evenodd" d="M21.5 12.7928C16.6989 12.7928 12.7928 16.699 12.7928 21.5C12.7928 26.3009 16.6989 30.2071 21.5 30.2071C26.301 30.2071 30.2071 26.3009 30.2071 21.5C30.2071 16.699 26.301 12.7928 21.5 12.7928ZM12.3657 21.5C12.3657 16.4632 16.4631 12.3657 21.5 12.3657C26.5369 12.3657 30.6342 16.4632 30.6342 21.5C30.6342 26.5368 26.5369 30.6342 21.5 30.6342C16.4631 30.6342 12.3657 26.5368 12.3657 21.5ZM14.7681 21.5C14.7681 17.7878 17.7877 14.7681 21.5 14.7681C25.2122 14.7681 28.2319 17.7878 28.2319 21.5C28.2319 25.2121 25.2121 28.2319 21.5 28.2319C17.7878 28.2319 14.7681 25.2121 14.7681 21.5ZM21.5 15.1951C18.0236 15.1951 15.1951 18.0237 15.1951 21.5C15.1951 24.9763 18.0237 27.8048 21.5 27.8048C24.9763 27.8048 27.8048 24.9763 27.8048 21.5C27.8048 18.0237 24.9763 15.1951 21.5 15.1951Z" fill="#0099FF"/>
<path fill-rule="evenodd" clip-rule="evenodd" d="M12.208 21.4999C12.208 16.376 16.376 12.208 21.4999 12.208C26.6239 12.208 30.7919 16.376 30.7919 21.4999C30.7919 26.6238 26.6239 30.7919 21.4999 30.7919C16.376 30.7919 12.208 26.6238 12.208 21.4999ZM21.4999 12.5234C16.5501 12.5234 12.5234 16.5502 12.5234 21.4999C12.5234 26.4497 16.5501 30.4765 21.4999 30.4765C26.4497 30.4765 30.4765 26.4497 30.4765 21.4999C30.4765 16.5502 26.4497 12.5234 21.4999 12.5234ZM21.4999 12.9505C16.786 12.9505 12.9505 16.7861 12.9505 21.4999C12.9505 26.2138 16.786 30.0494 21.4999 30.0494C26.2139 30.0494 30.0494 26.2138 30.0494 21.4999C30.0494 16.7861 26.2139 12.9505 21.4999 12.9505ZM12.6351 21.4999C12.6351 16.6119 16.6118 12.6351 21.4999 12.6351C26.3881 12.6351 30.3648 16.6119 30.3648 21.4999C30.3648 26.388 26.3881 30.3648 21.4999 30.3648C16.6118 30.3648 12.6351 26.388 12.6351 21.4999ZM14.6104 21.4999C14.6104 17.7007 17.7006 14.6104 21.4999 14.6104C25.2993 14.6104 28.3895 17.7007 28.3895 21.4999C28.3895 25.2992 25.2992 28.3895 21.4999 28.3895C17.7007 28.3895 14.6104 25.2992 14.6104 21.4999ZM21.4999 14.9257C17.8748 14.9257 14.9257 17.8749 14.9257 21.4999C14.9257 25.125 17.8749 28.0741 21.4999 28.0741C25.125 28.0741 28.0741 25.125 28.0741 21.4999C28.0741 17.8749 25.1251 14.9257 21.4999 14.9257ZM21.4999 15.3528C18.1107 15.3528 15.3528 18.1107 15.3528 21.4999C15.3528 24.8891 18.1107 27.6471 21.4999 27.6471C24.8891 27.6471 27.6471 24.8891 27.6471 21.4999C27.6471 18.1107 24.8892 15.3528 21.4999 15.3528ZM15.0374 21.4999C15.0374 17.9366 17.9365 15.0374 21.4999 15.0374C25.0634 15.0374 27.9624 17.9366 27.9624 21.4999C27.9624 25.0633 25.0633 27.9624 21.4999 27.9624C17.9366 27.9624 15.0374 25.0633 15.0374 21.4999Z" fill="#0099FF"/>
</svg>
