<svg width="43" height="43" viewBox="0 0 43 43" fill="none" xmlns="http://www.w3.org/2000/svg">
<path d="M35 20.6136C35 13.4454 29.1682 7.61353 22 7.61353C14.8317 7.61353 9 13.4454 9 20.6136C9 25.0094 11.2444 29.1181 14.9037 31.5074V35.6029C14.9037 39.5157 18.087 42.6989 21.9998 42.6989C25.9126 42.6989 29.0959 39.5157 29.0959 35.6029V33.3026C29.0959 33.302 29.0958 31.5076 29.0958 31.5076C32.7555 29.1182 35 25.0096 35 20.6136ZM26.5899 35.603C26.5899 38.134 24.5309 40.1929 22 40.1929C19.469 40.1929 17.41 38.1339 17.41 35.603V34.5556H26.5899V35.603ZM27.2188 29.7199C26.8297 29.9434 26.5899 30.3578 26.5899 30.8065V32.0496H23.2529V25.57C24.88 25.0406 26.0597 23.5104 26.0597 21.709C26.0597 21.017 25.4986 20.456 24.8066 20.456C24.1146 20.456 23.5536 21.017 23.5536 21.709C23.5536 22.5657 22.8566 23.2627 22 23.2627C21.1433 23.2627 20.4463 22.5657 20.4463 21.709C20.4463 21.017 19.8852 20.456 19.1932 20.456C18.5012 20.456 17.9402 21.017 17.9402 21.709C17.9402 23.5103 19.1198 25.0406 20.7469 25.57V32.0496H17.4101V30.8064C17.4101 30.3578 17.1703 29.9434 16.7813 29.7199C13.5275 27.8506 11.5063 24.3613 11.5063 20.6136C11.5063 14.8272 16.2138 10.1196 22.0002 10.1196C27.7866 10.1196 32.4941 14.8272 32.4941 20.6136C32.494 24.3614 30.4726 27.8508 27.2188 29.7199Z" fill="#0099FF"/>
<path d="M22.4697 0C21.6332 0 20.955 0.67822 20.955 1.51474V4.17388C20.955 5.0104 21.6332 5.68862 22.4697 5.68862C23.3062 5.68862 23.9844 5.0104 23.9844 4.17388V1.51474C23.9844 0.67822 23.3063 0 22.4697 0Z" fill="#0099FF"/>
<path d="M18.2089 4.56267L17.2687 2.07513C16.9729 1.29264 16.0984 0.898099 15.3163 1.19378C14.5338 1.48957 14.1391 2.36371 14.4349 3.14619L15.375 5.63373C15.6041 6.2399 16.1803 6.61333 16.7922 6.61333C16.9701 6.61333 17.1512 6.58171 17.3275 6.51507C18.11 6.21929 18.5046 5.34515 18.2089 4.56267Z" fill="#0099FF"/>
<path d="M29.6231 1.19385C28.8405 0.897967 27.9665 1.29281 27.6707 2.0753L26.7305 4.56284C26.4348 5.34522 26.8295 6.21936 27.612 6.51514C27.7883 6.58179 27.9693 6.61341 28.1472 6.61341C28.7592 6.61341 29.3353 6.23997 29.5644 5.6338L30.5045 3.14626C30.8003 2.36367 30.4057 1.48963 29.6231 1.19385Z" fill="#0099FF"/>
</svg>
